<svg width="159" height="116" viewBox="0 0 159 116" fill="none" xmlns="http://www.w3.org/2000/svg">
<g clip-path="url(#clip0_1700_23153)">
<path d="M3.248 18V9.728H0.496V7.792H8.32V9.728H5.584V18H3.248ZM11.8841 10.416V18H9.62813V10.416H11.8841ZM10.7801 9.568C10.3855 9.568 10.0655 9.472 9.82013 9.28C9.58546 9.07733 9.46813 8.79467 9.46813 8.432C9.46813 8.08 9.58546 7.81333 9.82013 7.632C10.0655 7.44 10.3855 7.344 10.7801 7.344C11.1535 7.344 11.4575 7.44 11.6921 7.632C11.9375 7.81333 12.0601 8.08 12.0601 8.432C12.0601 8.79467 11.9375 9.07733 11.6921 9.28C11.4575 9.472 11.1535 9.568 10.7801 9.568ZM14.7835 8.688H16.1435V15.136C16.1435 15.5947 16.2342 15.9093 16.4155 16.08C16.6075 16.24 16.8582 16.32 17.1675 16.32C17.3168 16.32 17.4448 16.304 17.5515 16.272C17.6582 16.24 17.7488 16.2027 17.8235 16.16V17.936C17.7382 17.9787 17.5995 18.0267 17.4075 18.08C17.2155 18.1333 16.9488 18.16 16.6075 18.16C15.7862 18.16 15.1248 17.9413 14.6235 17.504C14.1328 17.0667 13.8875 16.3787 13.8875 15.44V11.52L15.0555 10.416H17.8235V12.192H12.9275V11.056C13.2582 10.992 13.5515 10.8693 13.8075 10.688C14.0635 10.5067 14.2768 10.256 14.4475 9.936C14.6182 9.60533 14.7302 9.18933 14.7835 8.688ZM18.9849 15.632V7.424H21.4489V15.392C21.4489 15.6693 21.5022 15.872 21.6089 16C21.7262 16.1173 21.8969 16.176 22.1209 16.176C22.2062 16.176 22.2809 16.1707 22.3449 16.16C22.4195 16.1493 22.4889 16.1387 22.5529 16.128V17.984C22.4889 18.016 22.3769 18.048 22.2169 18.08C22.0569 18.1227 21.8435 18.144 21.5769 18.144C20.7449 18.144 20.1049 17.9307 19.6569 17.504C19.2089 17.0773 18.9849 16.4533 18.9849 15.632ZM29.7386 13.376L28.4746 14.048C28.5173 13.5467 28.4906 13.136 28.3946 12.816C28.3093 12.4853 28.1653 12.24 27.9626 12.08C27.76 11.92 27.4986 11.84 27.1786 11.84C26.656 11.84 26.2453 12.032 25.9466 12.416C25.6586 12.7893 25.5146 13.3867 25.5146 14.208C25.5146 14.9547 25.712 15.5093 26.1066 15.872C26.512 16.224 27.1093 16.4 27.8986 16.4C28.4 16.4 28.8586 16.3413 29.2746 16.224C29.6906 16.096 30.016 15.9467 30.2506 15.776V17.616C30.08 17.7547 29.7653 17.8933 29.3066 18.032C28.8586 18.1707 28.32 18.24 27.6906 18.24C26.7946 18.24 26.016 18.08 25.3546 17.76C24.6933 17.4293 24.1813 16.9653 23.8186 16.368C23.456 15.76 23.2746 15.04 23.2746 14.208C23.2746 13.376 23.4453 12.656 23.7866 12.048C24.1386 11.44 24.608 10.976 25.1946 10.656C25.7813 10.3253 26.4266 10.16 27.1306 10.16C27.856 10.16 28.4906 10.32 29.0346 10.64C29.5893 10.96 30.0106 11.4613 30.2986 12.144C30.5866 12.8267 30.6986 13.7067 30.6346 14.784H24.1226V13.376H29.7386Z" fill="#2E2F32"/>
</g>
<path d="M3.234 39V31.034H0.518V30.068H7.056V31.034H4.354V39H3.234ZM9.56222 32.378V39H8.48422V32.378H9.56222ZM9.01622 31.244C8.81089 31.244 8.64289 31.1833 8.51222 31.062C8.38155 30.9313 8.31622 30.768 8.31622 30.572C8.31622 30.3853 8.38155 30.2313 8.51222 30.11C8.64289 29.9887 8.81089 29.928 9.01622 29.928C9.22155 29.928 9.38955 29.9887 9.52022 30.11C9.66022 30.2313 9.73022 30.3853 9.73022 30.572C9.73022 30.768 9.66022 30.9313 9.52022 31.062C9.38955 31.1833 9.22155 31.244 9.01622 31.244ZM16.5073 34.534L16.2413 35.15C16.2506 34.646 16.3533 34.17 16.5493 33.722C16.7453 33.274 17.0253 32.91 17.3893 32.63C17.7626 32.35 18.2106 32.21 18.7333 32.21C19.3306 32.21 19.816 32.406 20.1893 32.798C20.5626 33.1807 20.7493 33.7687 20.7493 34.562V39H19.6573V34.702C19.6573 34.1327 19.5406 33.7313 19.3073 33.498C19.0833 33.2647 18.7753 33.148 18.3833 33.148C17.8793 33.148 17.45 33.3673 17.0953 33.806C16.75 34.2447 16.5773 34.884 16.5773 35.724V39H15.4853V34.702C15.4853 34.1327 15.3733 33.7313 15.1493 33.498C14.9253 33.2647 14.6126 33.148 14.2113 33.148C13.7166 33.148 13.2966 33.3673 12.9513 33.806C12.606 34.2447 12.4333 34.884 12.4333 35.724V39H11.3413V32.378H12.4193V34.618L12.1813 35.178C12.1906 34.6647 12.284 34.184 12.4613 33.736C12.6386 33.2787 12.9046 32.91 13.2593 32.63C13.6233 32.35 14.0666 32.21 14.5893 32.21C14.972 32.21 15.308 32.2987 15.5973 32.476C15.896 32.644 16.1246 32.9007 16.2833 33.246C16.4513 33.5913 16.526 34.0207 16.5073 34.534ZM27.6782 35.108L27.0062 35.416C27.0529 34.9027 26.9969 34.4733 26.8382 34.128C26.6889 33.7827 26.4742 33.526 26.1942 33.358C25.9236 33.19 25.6202 33.106 25.2842 33.106C24.6402 33.106 24.1222 33.3207 23.7302 33.75C23.3382 34.1793 23.1422 34.8373 23.1422 35.724C23.1422 36.5453 23.3709 37.166 23.8282 37.586C24.2856 38.006 24.8922 38.216 25.6482 38.216C26.0869 38.216 26.4976 38.1553 26.8802 38.034C27.2629 37.9033 27.5709 37.726 27.8042 37.502V38.482C27.6549 38.6313 27.3749 38.7807 26.9642 38.93C26.5536 39.07 26.0869 39.14 25.5642 39.14C24.9016 39.14 24.3042 39.0093 23.7722 38.748C23.2402 38.4773 22.8202 38.09 22.5122 37.586C22.2136 37.0727 22.0642 36.452 22.0642 35.724C22.0642 34.9867 22.2042 34.3567 22.4842 33.834C22.7736 33.3113 23.1609 32.9147 23.6462 32.644C24.1316 32.364 24.6636 32.224 25.2422 32.224C25.8209 32.224 26.3342 32.3593 26.7822 32.63C27.2302 32.9007 27.5709 33.3113 27.8042 33.862C28.0376 34.4033 28.1262 35.0847 28.0702 35.906H22.5542V35.108H27.6782Z" fill="#74767C"/>
<path d="M5.652 63.032L10.872 81.86L16.056 63.032H21.096L14.724 86H6.66L0.288 63.032H5.652ZM32.0678 86V83.48C31.6838 84.344 31.0958 85.064 30.3038 85.64C29.5358 86.216 28.4918 86.504 27.1718 86.504C25.6838 86.504 24.4718 86.072 23.5358 85.208C22.5998 84.32 22.1318 83.096 22.1318 81.536C22.1318 79.832 22.6598 78.584 23.7158 77.792C24.7718 77 26.2718 76.388 28.2158 75.956C29.1278 75.764 29.8478 75.596 30.3758 75.452C30.9038 75.284 31.2878 75.092 31.5278 74.876C31.7678 74.66 31.8878 74.396 31.8878 74.084C31.9118 73.532 31.7078 73.124 31.2758 72.86C30.8678 72.572 30.2078 72.428 29.2958 72.428C28.3358 72.428 27.4598 72.56 26.6678 72.824C25.8998 73.064 25.2158 73.364 24.6158 73.724C24.0398 74.084 23.5718 74.432 23.2118 74.768V70.376C23.6438 69.968 24.4478 69.536 25.6238 69.08C26.7998 68.6 28.2398 68.36 29.9438 68.36C32.2238 68.36 33.9758 68.9 35.1998 69.98C36.4238 71.036 37.0358 72.764 37.0358 75.164V86H32.0678ZM31.9598 79.988V77.396C31.7198 77.66 31.3838 77.9 30.9518 78.116C30.5198 78.308 30.0518 78.5 29.5478 78.692C28.8278 78.932 28.2158 79.244 27.7118 79.628C27.2318 79.988 26.9918 80.528 26.9918 81.248C26.9918 81.824 27.1718 82.292 27.5318 82.652C27.8918 82.988 28.4078 83.156 29.0798 83.156C29.6558 83.156 30.1598 83.036 30.5918 82.796C31.0238 82.532 31.3598 82.172 31.5998 81.716C31.8398 81.236 31.9598 80.66 31.9598 79.988ZM40.255 80.672V62.204H45.799V80.132C45.799 80.756 45.919 81.212 46.159 81.5C46.423 81.764 46.807 81.896 47.311 81.896C47.503 81.896 47.671 81.884 47.815 81.86C47.983 81.836 48.139 81.812 48.283 81.788V85.964C48.139 86.036 47.887 86.108 47.527 86.18C47.167 86.276 46.687 86.324 46.087 86.324C44.215 86.324 42.775 85.844 41.767 84.884C40.759 83.924 40.255 82.52 40.255 80.672ZM62.003 86V82.256C61.547 83.504 60.827 84.536 59.843 85.352C58.859 86.168 57.599 86.576 56.063 86.576C54.359 86.576 53.039 86 52.103 84.848C51.167 83.672 50.699 82.1 50.699 80.132V68.936H55.811V79.376C55.811 80.336 56.003 81.08 56.387 81.608C56.795 82.136 57.455 82.4 58.367 82.4C59.399 82.4 60.251 81.968 60.923 81.104C61.619 80.216 61.967 78.98 61.967 77.396V68.936H67.043V86H62.003ZM84.2439 75.596L81.3999 77.108C81.4959 75.98 81.4359 75.056 81.2199 74.336C81.0279 73.592 80.7039 73.04 80.2479 72.68C79.7919 72.32 79.2039 72.14 78.4839 72.14C77.3079 72.14 76.3839 72.572 75.7119 73.436C75.0639 74.276 74.7399 75.62 74.7399 77.468C74.7399 79.148 75.1839 80.396 76.0719 81.212C76.9839 82.004 78.3279 82.4 80.1039 82.4C81.2319 82.4 82.2639 82.268 83.1999 82.004C84.1359 81.716 84.8679 81.38 85.3959 80.996V85.136C85.0119 85.448 84.3039 85.76 83.2719 86.072C82.2639 86.384 81.0519 86.54 79.6359 86.54C77.6199 86.54 75.8679 86.18 74.3799 85.46C72.8919 84.716 71.7399 83.672 70.9239 82.328C70.1079 80.96 69.6999 79.34 69.6999 77.468C69.6999 75.596 70.0839 73.976 70.8519 72.608C71.6439 71.24 72.6999 70.196 74.0199 69.476C75.3399 68.732 76.7919 68.36 78.3759 68.36C80.0079 68.36 81.4359 68.72 82.6599 69.44C83.9079 70.16 84.8559 71.288 85.5039 72.824C86.1519 74.36 86.4039 76.34 86.2599 78.764H71.6079V75.596H84.2439Z" fill="#2E2F32"/>
<path d="M103 81.22C103 82.7667 102.607 83.9933 101.82 84.9C101.047 85.8067 99.86 86.26 98.26 86.26C96.6467 86.26 95.4333 85.82 94.62 84.94C93.8067 84.0467 93.4 82.8067 93.4 81.22V73.24H95V81.12C95 82.4133 95.2667 83.3667 95.8 83.98C96.3333 84.5933 97.1533 84.9 98.26 84.9C99.38 84.9 100.2 84.58 100.72 83.94C101.24 83.3 101.5 82.36 101.5 81.12V73.24H103V81.22ZM107.203 79.78L106.863 80.62C106.876 79.86 107.023 79.1533 107.303 78.5C107.583 77.8333 108.003 77.3 108.563 76.9C109.123 76.5 109.809 76.3 110.623 76.3C111.556 76.3 112.309 76.5933 112.883 77.18C113.469 77.7667 113.763 78.6667 113.763 79.88V86H112.223V80.06C112.223 79.1667 112.029 78.54 111.643 78.18C111.256 77.82 110.729 77.64 110.063 77.64C109.249 77.64 108.569 77.96 108.023 78.6C107.489 79.24 107.223 80.16 107.223 81.36V86H105.663V76.54H107.203V79.78ZM117.809 76.54V86H116.269V76.54H117.809ZM117.029 74.92C116.735 74.92 116.495 74.8333 116.309 74.66C116.122 74.4733 116.029 74.24 116.029 73.96C116.029 73.6933 116.122 73.4733 116.309 73.3C116.495 73.1267 116.735 73.04 117.029 73.04C117.322 73.04 117.562 73.1267 117.749 73.3C117.949 73.4733 118.049 73.6933 118.049 73.96C118.049 74.24 117.949 74.4733 117.749 74.66C117.562 74.8333 117.322 74.92 117.029 74.92ZM121.33 74.34H122.33V83.1C122.33 83.74 122.45 84.1933 122.69 84.46C122.944 84.7133 123.304 84.84 123.77 84.84C124.024 84.84 124.244 84.8133 124.43 84.76C124.617 84.6933 124.757 84.6267 124.85 84.56V85.84C124.757 85.9067 124.604 85.9733 124.39 86.04C124.177 86.1067 123.87 86.14 123.47 86.14C122.684 86.14 122.037 85.92 121.53 85.48C121.024 85.04 120.77 84.3133 120.77 83.3V77.26L121.47 76.54H124.85V77.82H119.53V76.96C119.944 76.9067 120.27 76.7933 120.51 76.62C120.75 76.4467 120.93 76.18 121.05 75.82C121.184 75.46 121.277 74.9667 121.33 74.34Z" fill="#2E2F32"/>
<g clip-path="url(#clip1_1700_23153)">
<path fill-rule="evenodd" clip-rule="evenodd" d="M7.64648 99.1464C7.84175 98.9512 8.15833 98.9512 8.35359 99.1464L12.8536 103.646L12.1465 104.354L8.50003 100.707V113H7.50003V100.707L3.85359 104.354L3.14648 103.646L7.64648 99.1464Z" fill="#EA1100"/>
<path d="M21.3724 102.068L23.9624 110.132L26.5664 102.068H27.6444L24.7884 111H23.0664L20.2104 102.068H21.3724ZM32.412 111V109.838C32.244 110.239 31.978 110.557 31.614 110.79C31.2594 111.023 30.83 111.14 30.326 111.14C29.7287 111.14 29.2387 110.967 28.856 110.622C28.4827 110.277 28.296 109.819 28.296 109.25C28.296 108.643 28.4874 108.191 28.87 107.892C29.2527 107.584 29.7847 107.36 30.466 107.22C30.9607 107.108 31.3434 107.015 31.614 106.94C31.894 106.856 32.0854 106.758 32.188 106.646C32.3 106.534 32.356 106.385 32.356 106.198C32.3654 105.815 32.2394 105.54 31.978 105.372C31.726 105.204 31.3807 105.12 30.942 105.12C30.5594 105.12 30.2187 105.171 29.92 105.274C29.6307 105.377 29.3787 105.503 29.164 105.652C28.9587 105.792 28.7907 105.932 28.66 106.072V105.022C28.8187 104.845 29.0987 104.667 29.5 104.49C29.9014 104.303 30.424 104.21 31.068 104.21C31.852 104.21 32.454 104.401 32.874 104.784C33.294 105.157 33.504 105.745 33.504 106.548V111H32.412ZM32.412 108.564V107.22C32.328 107.332 32.1694 107.439 31.936 107.542C31.712 107.635 31.376 107.738 30.928 107.85C30.4147 107.971 30.0227 108.13 29.752 108.326C29.4814 108.522 29.346 108.821 29.346 109.222C29.346 109.549 29.458 109.819 29.682 110.034C29.906 110.239 30.2327 110.342 30.662 110.342C31.0447 110.342 31.3667 110.253 31.628 110.076C31.8894 109.899 32.0854 109.679 32.216 109.418C32.3467 109.147 32.412 108.863 32.412 108.564ZM35.0985 109.404V101.746H36.2465V109.306C36.2465 109.614 36.3118 109.829 36.4425 109.95C36.5732 110.062 36.7458 110.118 36.9605 110.118C37.0352 110.118 37.1052 110.113 37.1705 110.104C37.2452 110.085 37.3152 110.071 37.3805 110.062V111C37.3152 111.019 37.2312 111.037 37.1285 111.056C37.0258 111.075 36.8952 111.084 36.7365 111.084C36.2325 111.084 35.8312 110.944 35.5325 110.664C35.2432 110.375 35.0985 109.955 35.0985 109.404ZM42.9857 111V109.502C42.7991 109.987 42.5051 110.384 42.1037 110.692C41.7117 111 41.2171 111.154 40.6197 111.154C39.9757 111.154 39.4484 110.953 39.0377 110.552C38.6364 110.141 38.4357 109.516 38.4357 108.676V104.378H39.5277V108.536C39.5277 109.152 39.6584 109.591 39.9197 109.852C40.1904 110.113 40.5544 110.244 41.0117 110.244C41.5717 110.244 42.0384 110.02 42.4117 109.572C42.7851 109.115 42.9717 108.461 42.9717 107.612V104.378H44.0637V111H42.9857ZM51.0829 107.108L50.4109 107.416C50.4575 106.903 50.4015 106.473 50.2429 106.128C50.0935 105.783 49.8789 105.526 49.5989 105.358C49.3282 105.19 49.0249 105.106 48.6889 105.106C48.0449 105.106 47.5269 105.321 47.1349 105.75C46.7429 106.179 46.5469 106.837 46.5469 107.724C46.5469 108.545 46.7755 109.166 47.2329 109.586C47.6902 110.006 48.2969 110.216 49.0529 110.216C49.4915 110.216 49.9022 110.155 50.2849 110.034C50.6675 109.903 50.9755 109.726 51.2089 109.502V110.482C51.0595 110.631 50.7795 110.781 50.3689 110.93C49.9582 111.07 49.4915 111.14 48.9689 111.14C48.3062 111.14 47.7089 111.009 47.1769 110.748C46.6449 110.477 46.2249 110.09 45.9169 109.586C45.6182 109.073 45.4689 108.452 45.4689 107.724C45.4689 106.987 45.6089 106.357 45.8889 105.834C46.1782 105.311 46.5655 104.915 47.0509 104.644C47.5362 104.364 48.0682 104.224 48.6469 104.224C49.2255 104.224 49.7389 104.359 50.1869 104.63C50.6349 104.901 50.9755 105.311 51.2089 105.862C51.4422 106.403 51.5309 107.085 51.4749 107.906H45.9589V107.108H51.0829ZM57.7591 111.742V112.512H55.4351V101.746H57.7591V102.516H56.4151V111.742H57.7591ZM61.5476 104.21C62.1076 104.21 62.5929 104.355 63.0036 104.644C63.4236 104.924 63.7409 105.311 63.9556 105.806V101.662H65.0476V111H63.9556V109.488C63.7409 109.983 63.4236 110.379 63.0036 110.678C62.5836 110.977 62.0889 111.126 61.5196 111.126C60.9316 111.126 60.4182 110.977 59.9796 110.678C59.5502 110.379 59.2142 109.969 58.9716 109.446C58.7382 108.923 58.6216 108.335 58.6216 107.682C58.6216 107.019 58.7382 106.427 58.9716 105.904C59.2142 105.381 59.5549 104.971 59.9936 104.672C60.4416 104.364 60.9596 104.21 61.5476 104.21ZM61.8136 105.12C61.3656 105.12 60.9829 105.232 60.6656 105.456C60.3482 105.68 60.1056 105.983 59.9376 106.366C59.7696 106.749 59.6856 107.187 59.6856 107.682C59.6856 108.167 59.7649 108.606 59.9236 108.998C60.0916 109.381 60.3342 109.684 60.6516 109.908C60.9689 110.132 61.3562 110.244 61.8136 110.244C62.2616 110.244 62.6489 110.132 62.9756 109.908C63.3116 109.684 63.5682 109.381 63.7456 108.998C63.9229 108.606 64.0116 108.167 64.0116 107.682C64.0116 107.187 63.9182 106.749 63.7316 106.366C63.5542 105.983 63.3022 105.68 62.9756 105.456C62.6489 105.232 62.2616 105.12 61.8136 105.12ZM72.0419 107.108L71.3699 107.416C71.4165 106.903 71.3605 106.473 71.2019 106.128C71.0525 105.783 70.8379 105.526 70.5579 105.358C70.2872 105.19 69.9839 105.106 69.6479 105.106C69.0039 105.106 68.4859 105.321 68.0939 105.75C67.7019 106.179 67.5059 106.837 67.5059 107.724C67.5059 108.545 67.7345 109.166 68.1919 109.586C68.6492 110.006 69.2559 110.216 70.0119 110.216C70.4505 110.216 70.8612 110.155 71.2439 110.034C71.6265 109.903 71.9345 109.726 72.1679 109.502V110.482C72.0185 110.631 71.7385 110.781 71.3279 110.93C70.9172 111.07 70.4505 111.14 69.9279 111.14C69.2652 111.14 68.6679 111.009 68.1359 110.748C67.6039 110.477 67.1839 110.09 66.8759 109.586C66.5772 109.073 66.4279 108.452 66.4279 107.724C66.4279 106.987 66.5679 106.357 66.8479 105.834C67.1372 105.311 67.5245 104.915 68.0099 104.644C68.4952 104.364 69.0272 104.224 69.6059 104.224C70.1845 104.224 70.6979 104.359 71.1459 104.63C71.5939 104.901 71.9345 105.311 72.1679 105.862C72.4012 106.403 72.4899 107.085 72.4339 107.906H66.9179V107.108H72.0419ZM74.4219 106.072C74.4219 106.333 74.4919 106.534 74.6319 106.674C74.7812 106.805 74.9772 106.907 75.2199 106.982C75.4719 107.047 75.7425 107.103 76.0319 107.15C76.3212 107.187 76.6152 107.248 76.9139 107.332C77.1752 107.397 77.4225 107.5 77.6559 107.64C77.8892 107.78 78.0759 107.971 78.2159 108.214C78.3559 108.447 78.4259 108.755 78.4259 109.138C78.4259 109.586 78.3139 109.959 78.0899 110.258C77.8659 110.557 77.5625 110.781 77.1799 110.93C76.7972 111.07 76.3772 111.14 75.9199 111.14C75.2759 111.14 74.7439 111.061 74.3239 110.902C73.9132 110.734 73.6099 110.571 73.4139 110.412V109.362C73.6472 109.614 73.9692 109.829 74.3799 110.006C74.7999 110.174 75.2759 110.258 75.8079 110.258C76.2559 110.258 76.6292 110.179 76.9279 110.02C77.2265 109.852 77.3759 109.577 77.3759 109.194C77.3759 108.923 77.3059 108.723 77.1659 108.592C77.0259 108.452 76.8392 108.354 76.6059 108.298C76.3725 108.233 76.1065 108.177 75.8079 108.13C75.5185 108.074 75.2199 108.004 74.9119 107.92C74.4359 107.78 74.0672 107.579 73.8059 107.318C73.5539 107.057 73.4279 106.66 73.4279 106.128C73.4279 105.531 73.6472 105.064 74.0859 104.728C74.5339 104.392 75.1265 104.224 75.8639 104.224C76.4612 104.224 76.9325 104.294 77.2779 104.434C77.6325 104.565 77.8939 104.695 78.0619 104.826V105.89C77.8659 105.694 77.5859 105.512 77.2219 105.344C76.8672 105.176 76.4192 105.092 75.8779 105.092C75.4579 105.092 75.1079 105.167 74.8279 105.316C74.5572 105.456 74.4219 105.708 74.4219 106.072ZM84.7095 104.798V105.904C84.4761 105.671 84.1961 105.489 83.8695 105.358C83.5521 105.227 83.2068 105.162 82.8335 105.162C82.4041 105.162 82.0075 105.26 81.6435 105.456C81.2795 105.652 80.9901 105.937 80.7755 106.31C80.5608 106.683 80.4535 107.145 80.4535 107.696C80.4535 108.247 80.5608 108.709 80.7755 109.082C80.9901 109.446 81.2795 109.726 81.6435 109.922C82.0075 110.109 82.4041 110.202 82.8335 110.202C83.2535 110.202 83.6175 110.141 83.9255 110.02C84.2335 109.899 84.4948 109.745 84.7095 109.558V110.538C84.5788 110.659 84.3548 110.79 84.0375 110.93C83.7201 111.07 83.3001 111.14 82.7775 111.14C82.1708 111.14 81.6061 111.005 81.0835 110.734C80.5608 110.463 80.1455 110.071 79.8375 109.558C79.5295 109.045 79.3755 108.424 79.3755 107.696C79.3755 106.959 79.5295 106.333 79.8375 105.82C80.1455 105.307 80.5608 104.915 81.0835 104.644C81.6061 104.373 82.1708 104.238 82.7775 104.238C83.2721 104.238 83.6735 104.299 83.9815 104.42C84.2988 104.541 84.5415 104.667 84.7095 104.798ZM87.2852 107.668V111H86.1932V104.378H87.2712V106.03C87.4299 105.479 87.7052 105.055 88.0972 104.756C88.4986 104.457 88.9839 104.322 89.5532 104.35V105.484C89.4972 105.484 89.4319 105.479 89.3572 105.47C89.2826 105.451 89.2126 105.442 89.1472 105.442C88.8486 105.442 88.5546 105.517 88.2652 105.666C87.9759 105.815 87.7379 106.053 87.5512 106.38C87.3739 106.697 87.2852 107.127 87.2852 107.668ZM91.961 104.378V111H90.883V104.378H91.961ZM91.415 103.244C91.2097 103.244 91.0417 103.183 90.911 103.062C90.7804 102.931 90.715 102.768 90.715 102.572C90.715 102.385 90.7804 102.231 90.911 102.11C91.0417 101.989 91.2097 101.928 91.415 101.928C91.6204 101.928 91.7884 101.989 91.919 102.11C92.059 102.231 92.129 102.385 92.129 102.572C92.129 102.768 92.059 102.931 91.919 103.062C91.7884 103.183 91.6204 103.244 91.415 103.244ZM97.2961 111.126C96.7268 111.126 96.2274 110.977 95.7981 110.678C95.3781 110.37 95.0561 109.973 94.8321 109.488V113.226H93.7401V104.378H94.8181V105.876C95.0514 105.381 95.3781 104.98 95.7981 104.672C96.2274 104.364 96.7268 104.21 97.2961 104.21C97.8841 104.21 98.3928 104.364 98.8221 104.672C99.2514 104.971 99.5828 105.381 99.8161 105.904C100.059 106.427 100.18 107.019 100.18 107.682C100.18 108.335 100.059 108.923 99.8161 109.446C99.5828 109.969 99.2514 110.379 98.8221 110.678C98.3928 110.977 97.8841 111.126 97.2961 111.126ZM96.9881 110.244C97.4361 110.244 97.8141 110.132 98.1221 109.908C98.4394 109.684 98.6821 109.381 98.8501 108.998C99.0181 108.606 99.1021 108.167 99.1021 107.682C99.1021 107.178 99.0181 106.735 98.8501 106.352C98.6914 105.969 98.4534 105.671 98.1361 105.456C97.8281 105.232 97.4454 105.12 96.9881 105.12C96.5401 105.12 96.1481 105.232 95.8121 105.456C95.4854 105.671 95.2288 105.969 95.0421 106.352C94.8648 106.735 94.7761 107.178 94.7761 107.682C94.7761 108.167 94.8694 108.606 95.0561 108.998C95.2428 109.381 95.4994 109.684 95.8261 109.908C96.1621 110.132 96.5494 110.244 96.9881 110.244ZM102.246 102.838H102.946V108.97C102.946 109.418 103.03 109.735 103.198 109.922C103.376 110.099 103.628 110.188 103.954 110.188C104.132 110.188 104.286 110.169 104.416 110.132C104.547 110.085 104.645 110.039 104.71 109.992V110.888C104.645 110.935 104.538 110.981 104.388 111.028C104.239 111.075 104.024 111.098 103.744 111.098C103.194 111.098 102.741 110.944 102.386 110.636C102.032 110.328 101.854 109.819 101.854 109.11V104.882L102.344 104.378H104.71V105.274H100.986V104.672C101.276 104.635 101.504 104.555 101.672 104.434C101.84 104.313 101.966 104.126 102.05 103.874C102.144 103.622 102.209 103.277 102.246 102.838ZM109.051 111.126C108.426 111.126 107.866 110.977 107.371 110.678C106.886 110.379 106.503 109.969 106.223 109.446C105.943 108.923 105.803 108.335 105.803 107.682C105.803 107.01 105.943 106.417 106.223 105.904C106.503 105.381 106.886 104.971 107.371 104.672C107.866 104.364 108.426 104.21 109.051 104.21C109.695 104.21 110.26 104.364 110.745 104.672C111.24 104.971 111.627 105.381 111.907 105.904C112.187 106.417 112.327 107.01 112.327 107.682C112.327 108.335 112.187 108.923 111.907 109.446C111.627 109.969 111.24 110.379 110.745 110.678C110.26 110.977 109.695 111.126 109.051 111.126ZM109.051 110.23C109.518 110.23 109.915 110.118 110.241 109.894C110.568 109.67 110.82 109.367 110.997 108.984C111.175 108.601 111.263 108.167 111.263 107.682C111.263 107.187 111.175 106.749 110.997 106.366C110.829 105.983 110.582 105.68 110.255 105.456C109.929 105.232 109.527 105.12 109.051 105.12C108.594 105.12 108.202 105.232 107.875 105.456C107.549 105.68 107.297 105.983 107.119 106.366C106.951 106.749 106.867 107.187 106.867 107.682C106.867 108.167 106.956 108.601 107.133 108.984C107.311 109.367 107.563 109.67 107.889 109.894C108.216 110.118 108.603 110.23 109.051 110.23ZM114.82 107.668V111H113.728V104.378H114.806V106.03C114.965 105.479 115.24 105.055 115.632 104.756C116.034 104.457 116.519 104.322 117.088 104.35V105.484C117.032 105.484 116.967 105.479 116.892 105.47C116.818 105.451 116.748 105.442 116.682 105.442C116.384 105.442 116.09 105.517 115.8 105.666C115.511 105.815 115.273 106.053 115.086 106.38C114.909 106.697 114.82 107.127 114.82 107.668ZM117.886 102.516V101.746H120.196V112.512H117.886V111.742H119.216V102.516H117.886ZM124.417 109.404V101.746H125.565V109.306C125.565 109.614 125.63 109.829 125.761 109.95C125.892 110.062 126.064 110.118 126.279 110.118C126.354 110.118 126.424 110.113 126.489 110.104C126.564 110.085 126.634 110.071 126.699 110.062V111C126.634 111.019 126.55 111.037 126.447 111.056C126.344 111.075 126.214 111.084 126.055 111.084C125.551 111.084 125.15 110.944 124.851 110.664C124.562 110.375 124.417 109.955 124.417 109.404ZM131.492 111V109.838C131.324 110.239 131.058 110.557 130.694 110.79C130.339 111.023 129.91 111.14 129.406 111.14C128.809 111.14 128.319 110.967 127.936 110.622C127.563 110.277 127.376 109.819 127.376 109.25C127.376 108.643 127.567 108.191 127.95 107.892C128.333 107.584 128.865 107.36 129.546 107.22C130.041 107.108 130.423 107.015 130.694 106.94C130.974 106.856 131.165 106.758 131.268 106.646C131.38 106.534 131.436 106.385 131.436 106.198C131.445 105.815 131.319 105.54 131.058 105.372C130.806 105.204 130.461 105.12 130.022 105.12C129.639 105.12 129.299 105.171 129 105.274C128.711 105.377 128.459 105.503 128.244 105.652C128.039 105.792 127.871 105.932 127.74 106.072V105.022C127.899 104.845 128.179 104.667 128.58 104.49C128.981 104.303 129.504 104.21 130.148 104.21C130.932 104.21 131.534 104.401 131.954 104.784C132.374 105.157 132.584 105.745 132.584 106.548V111H131.492ZM131.492 108.564V107.22C131.408 107.332 131.249 107.439 131.016 107.542C130.792 107.635 130.456 107.738 130.008 107.85C129.495 107.971 129.103 108.13 128.832 108.326C128.561 108.522 128.426 108.821 128.426 109.222C128.426 109.549 128.538 109.819 128.762 110.034C128.986 110.239 129.313 110.342 129.742 110.342C130.125 110.342 130.447 110.253 130.708 110.076C130.969 109.899 131.165 109.679 131.296 109.418C131.427 109.147 131.492 108.863 131.492 108.564ZM137.861 111.126C137.291 111.126 136.792 110.977 136.363 110.678C135.943 110.37 135.616 109.969 135.383 109.474V111H134.305V101.662H135.397V105.876C135.621 105.372 135.943 104.971 136.363 104.672C136.792 104.364 137.291 104.21 137.861 104.21C138.449 104.21 138.957 104.364 139.387 104.672C139.816 104.971 140.147 105.381 140.381 105.904C140.623 106.427 140.745 107.019 140.745 107.682C140.745 108.335 140.623 108.923 140.381 109.446C140.147 109.969 139.816 110.379 139.387 110.678C138.957 110.977 138.449 111.126 137.861 111.126ZM137.553 110.244C138.001 110.244 138.379 110.132 138.687 109.908C139.004 109.684 139.247 109.381 139.415 108.998C139.583 108.606 139.667 108.167 139.667 107.682C139.667 107.178 139.583 106.735 139.415 106.352C139.256 105.969 139.018 105.671 138.701 105.456C138.393 105.232 138.01 105.12 137.553 105.12C137.105 105.12 136.713 105.232 136.377 105.456C136.05 105.671 135.793 105.969 135.607 106.352C135.429 106.735 135.341 107.178 135.341 107.682C135.341 108.167 135.434 108.606 135.621 108.998C135.807 109.381 136.064 109.684 136.391 109.908C136.727 110.132 137.114 110.244 137.553 110.244ZM147.333 107.108L146.661 107.416C146.708 106.903 146.652 106.473 146.493 106.128C146.344 105.783 146.129 105.526 145.849 105.358C145.578 105.19 145.275 105.106 144.939 105.106C144.295 105.106 143.777 105.321 143.385 105.75C142.993 106.179 142.797 106.837 142.797 107.724C142.797 108.545 143.026 109.166 143.483 109.586C143.94 110.006 144.547 110.216 145.303 110.216C145.742 110.216 146.152 110.155 146.535 110.034C146.918 109.903 147.226 109.726 147.459 109.502V110.482C147.31 110.631 147.03 110.781 146.619 110.93C146.208 111.07 145.742 111.14 145.219 111.14C144.556 111.14 143.959 111.009 143.427 110.748C142.895 110.477 142.475 110.09 142.167 109.586C141.868 109.073 141.719 108.452 141.719 107.724C141.719 106.987 141.859 106.357 142.139 105.834C142.428 105.311 142.816 104.915 143.301 104.644C143.786 104.364 144.318 104.224 144.897 104.224C145.476 104.224 145.989 104.359 146.437 104.63C146.885 104.901 147.226 105.311 147.459 105.862C147.692 106.403 147.781 107.085 147.725 107.906H142.209V107.108H147.333ZM148.999 109.404V101.746H150.147V109.306C150.147 109.614 150.212 109.829 150.343 109.95C150.474 110.062 150.646 110.118 150.861 110.118C150.936 110.118 151.006 110.113 151.071 110.104C151.146 110.085 151.216 110.071 151.281 110.062V111C151.216 111.019 151.132 111.037 151.029 111.056C150.926 111.075 150.796 111.084 150.637 111.084C150.133 111.084 149.732 110.944 149.433 110.664C149.144 110.375 148.999 109.955 148.999 109.404Z" fill="#EA1100"/>
</g>
<defs>
<clipPath id="clip0_1700_23153">
<rect width="159" height="24" fill="white"/>
</clipPath>
<clipPath id="clip1_1700_23153">
<rect width="159" height="20" fill="white" transform="translate(0 96)"/>
</clipPath>
</defs>
</svg>
