<svg width="159" height="116" viewBox="0 0 159 116" fill="none" xmlns="http://www.w3.org/2000/svg">
<g clip-path="url(#clip0_1700_23145)">
<path d="M3.248 18V9.728H0.496V7.792H8.32V9.728H5.584V18H3.248ZM11.8841 10.416V18H9.62813V10.416H11.8841ZM10.7801 9.568C10.3855 9.568 10.0655 9.472 9.82013 9.28C9.58546 9.07733 9.46813 8.79467 9.46813 8.432C9.46813 8.08 9.58546 7.81333 9.82013 7.632C10.0655 7.44 10.3855 7.344 10.7801 7.344C11.1535 7.344 11.4575 7.44 11.6921 7.632C11.9375 7.81333 12.0601 8.08 12.0601 8.432C12.0601 8.79467 11.9375 9.07733 11.6921 9.28C11.4575 9.472 11.1535 9.568 10.7801 9.568ZM14.7835 8.688H16.1435V15.136C16.1435 15.5947 16.2342 15.9093 16.4155 16.08C16.6075 16.24 16.8582 16.32 17.1675 16.32C17.3168 16.32 17.4448 16.304 17.5515 16.272C17.6582 16.24 17.7488 16.2027 17.8235 16.16V17.936C17.7382 17.9787 17.5995 18.0267 17.4075 18.08C17.2155 18.1333 16.9488 18.16 16.6075 18.16C15.7862 18.16 15.1248 17.9413 14.6235 17.504C14.1328 17.0667 13.8875 16.3787 13.8875 15.44V11.52L15.0555 10.416H17.8235V12.192H12.9275V11.056C13.2582 10.992 13.5515 10.8693 13.8075 10.688C14.0635 10.5067 14.2768 10.256 14.4475 9.936C14.6182 9.60533 14.7302 9.18933 14.7835 8.688ZM18.9849 15.632V7.424H21.4489V15.392C21.4489 15.6693 21.5022 15.872 21.6089 16C21.7262 16.1173 21.8969 16.176 22.1209 16.176C22.2062 16.176 22.2809 16.1707 22.3449 16.16C22.4195 16.1493 22.4889 16.1387 22.5529 16.128V17.984C22.4889 18.016 22.3769 18.048 22.2169 18.08C22.0569 18.1227 21.8435 18.144 21.5769 18.144C20.7449 18.144 20.1049 17.9307 19.6569 17.504C19.2089 17.0773 18.9849 16.4533 18.9849 15.632ZM29.7386 13.376L28.4746 14.048C28.5173 13.5467 28.4906 13.136 28.3946 12.816C28.3093 12.4853 28.1653 12.24 27.9626 12.08C27.76 11.92 27.4986 11.84 27.1786 11.84C26.656 11.84 26.2453 12.032 25.9466 12.416C25.6586 12.7893 25.5146 13.3867 25.5146 14.208C25.5146 14.9547 25.712 15.5093 26.1066 15.872C26.512 16.224 27.1093 16.4 27.8986 16.4C28.4 16.4 28.8586 16.3413 29.2746 16.224C29.6906 16.096 30.016 15.9467 30.2506 15.776V17.616C30.08 17.7547 29.7653 17.8933 29.3066 18.032C28.8586 18.1707 28.32 18.24 27.6906 18.24C26.7946 18.24 26.016 18.08 25.3546 17.76C24.6933 17.4293 24.1813 16.9653 23.8186 16.368C23.456 15.76 23.2746 15.04 23.2746 14.208C23.2746 13.376 23.4453 12.656 23.7866 12.048C24.1386 11.44 24.608 10.976 25.1946 10.656C25.7813 10.3253 26.4266 10.16 27.1306 10.16C27.856 10.16 28.4906 10.32 29.0346 10.64C29.5893 10.96 30.0106 11.4613 30.2986 12.144C30.5866 12.8267 30.6986 13.7067 30.6346 14.784H24.1226V13.376H29.7386Z" fill="#2E2F32"/>
</g>
<path d="M3.234 39V31.034H0.518V30.068H7.056V31.034H4.354V39H3.234ZM9.56222 32.378V39H8.48422V32.378H9.56222ZM9.01622 31.244C8.81089 31.244 8.64289 31.1833 8.51222 31.062C8.38155 30.9313 8.31622 30.768 8.31622 30.572C8.31622 30.3853 8.38155 30.2313 8.51222 30.11C8.64289 29.9887 8.81089 29.928 9.01622 29.928C9.22155 29.928 9.38955 29.9887 9.52022 30.11C9.66022 30.2313 9.73022 30.3853 9.73022 30.572C9.73022 30.768 9.66022 30.9313 9.52022 31.062C9.38955 31.1833 9.22155 31.244 9.01622 31.244ZM16.5073 34.534L16.2413 35.15C16.2506 34.646 16.3533 34.17 16.5493 33.722C16.7453 33.274 17.0253 32.91 17.3893 32.63C17.7626 32.35 18.2106 32.21 18.7333 32.21C19.3306 32.21 19.816 32.406 20.1893 32.798C20.5626 33.1807 20.7493 33.7687 20.7493 34.562V39H19.6573V34.702C19.6573 34.1327 19.5406 33.7313 19.3073 33.498C19.0833 33.2647 18.7753 33.148 18.3833 33.148C17.8793 33.148 17.45 33.3673 17.0953 33.806C16.75 34.2447 16.5773 34.884 16.5773 35.724V39H15.4853V34.702C15.4853 34.1327 15.3733 33.7313 15.1493 33.498C14.9253 33.2647 14.6126 33.148 14.2113 33.148C13.7166 33.148 13.2966 33.3673 12.9513 33.806C12.606 34.2447 12.4333 34.884 12.4333 35.724V39H11.3413V32.378H12.4193V34.618L12.1813 35.178C12.1906 34.6647 12.284 34.184 12.4613 33.736C12.6386 33.2787 12.9046 32.91 13.2593 32.63C13.6233 32.35 14.0666 32.21 14.5893 32.21C14.972 32.21 15.308 32.2987 15.5973 32.476C15.896 32.644 16.1246 32.9007 16.2833 33.246C16.4513 33.5913 16.526 34.0207 16.5073 34.534ZM27.6782 35.108L27.0062 35.416C27.0529 34.9027 26.9969 34.4733 26.8382 34.128C26.6889 33.7827 26.4742 33.526 26.1942 33.358C25.9236 33.19 25.6202 33.106 25.2842 33.106C24.6402 33.106 24.1222 33.3207 23.7302 33.75C23.3382 34.1793 23.1422 34.8373 23.1422 35.724C23.1422 36.5453 23.3709 37.166 23.8282 37.586C24.2856 38.006 24.8922 38.216 25.6482 38.216C26.0869 38.216 26.4976 38.1553 26.8802 38.034C27.2629 37.9033 27.5709 37.726 27.8042 37.502V38.482C27.6549 38.6313 27.3749 38.7807 26.9642 38.93C26.5536 39.07 26.0869 39.14 25.5642 39.14C24.9016 39.14 24.3042 39.0093 23.7722 38.748C23.2402 38.4773 22.8202 38.09 22.5122 37.586C22.2136 37.0727 22.0642 36.452 22.0642 35.724C22.0642 34.9867 22.2042 34.3567 22.4842 33.834C22.7736 33.3113 23.1609 32.9147 23.6462 32.644C24.1316 32.364 24.6636 32.224 25.2422 32.224C25.8209 32.224 26.3342 32.3593 26.7822 32.63C27.2302 32.9007 27.5709 33.3113 27.8042 33.862C28.0376 34.4033 28.1262 35.0847 28.0702 35.906H22.5542V35.108H27.6782Z" fill="#74767C"/>
<path d="M5.652 63.032L10.872 81.86L16.056 63.032H21.096L14.724 86H6.66L0.288 63.032H5.652ZM32.0678 86V83.48C31.6838 84.344 31.0958 85.064 30.3038 85.64C29.5358 86.216 28.4918 86.504 27.1718 86.504C25.6838 86.504 24.4718 86.072 23.5358 85.208C22.5998 84.32 22.1318 83.096 22.1318 81.536C22.1318 79.832 22.6598 78.584 23.7158 77.792C24.7718 77 26.2718 76.388 28.2158 75.956C29.1278 75.764 29.8478 75.596 30.3758 75.452C30.9038 75.284 31.2878 75.092 31.5278 74.876C31.7678 74.66 31.8878 74.396 31.8878 74.084C31.9118 73.532 31.7078 73.124 31.2758 72.86C30.8678 72.572 30.2078 72.428 29.2958 72.428C28.3358 72.428 27.4598 72.56 26.6678 72.824C25.8998 73.064 25.2158 73.364 24.6158 73.724C24.0398 74.084 23.5718 74.432 23.2118 74.768V70.376C23.6438 69.968 24.4478 69.536 25.6238 69.08C26.7998 68.6 28.2398 68.36 29.9438 68.36C32.2238 68.36 33.9758 68.9 35.1998 69.98C36.4238 71.036 37.0358 72.764 37.0358 75.164V86H32.0678ZM31.9598 79.988V77.396C31.7198 77.66 31.3838 77.9 30.9518 78.116C30.5198 78.308 30.0518 78.5 29.5478 78.692C28.8278 78.932 28.2158 79.244 27.7118 79.628C27.2318 79.988 26.9918 80.528 26.9918 81.248C26.9918 81.824 27.1718 82.292 27.5318 82.652C27.8918 82.988 28.4078 83.156 29.0798 83.156C29.6558 83.156 30.1598 83.036 30.5918 82.796C31.0238 82.532 31.3598 82.172 31.5998 81.716C31.8398 81.236 31.9598 80.66 31.9598 79.988ZM40.255 80.672V62.204H45.799V80.132C45.799 80.756 45.919 81.212 46.159 81.5C46.423 81.764 46.807 81.896 47.311 81.896C47.503 81.896 47.671 81.884 47.815 81.86C47.983 81.836 48.139 81.812 48.283 81.788V85.964C48.139 86.036 47.887 86.108 47.527 86.18C47.167 86.276 46.687 86.324 46.087 86.324C44.215 86.324 42.775 85.844 41.767 84.884C40.759 83.924 40.255 82.52 40.255 80.672ZM62.003 86V82.256C61.547 83.504 60.827 84.536 59.843 85.352C58.859 86.168 57.599 86.576 56.063 86.576C54.359 86.576 53.039 86 52.103 84.848C51.167 83.672 50.699 82.1 50.699 80.132V68.936H55.811V79.376C55.811 80.336 56.003 81.08 56.387 81.608C56.795 82.136 57.455 82.4 58.367 82.4C59.399 82.4 60.251 81.968 60.923 81.104C61.619 80.216 61.967 78.98 61.967 77.396V68.936H67.043V86H62.003ZM84.2439 75.596L81.3999 77.108C81.4959 75.98 81.4359 75.056 81.2199 74.336C81.0279 73.592 80.7039 73.04 80.2479 72.68C79.7919 72.32 79.2039 72.14 78.4839 72.14C77.3079 72.14 76.3839 72.572 75.7119 73.436C75.0639 74.276 74.7399 75.62 74.7399 77.468C74.7399 79.148 75.1839 80.396 76.0719 81.212C76.9839 82.004 78.3279 82.4 80.1039 82.4C81.2319 82.4 82.2639 82.268 83.1999 82.004C84.1359 81.716 84.8679 81.38 85.3959 80.996V85.136C85.0119 85.448 84.3039 85.76 83.2719 86.072C82.2639 86.384 81.0519 86.54 79.6359 86.54C77.6199 86.54 75.8679 86.18 74.3799 85.46C72.8919 84.716 71.7399 83.672 70.9239 82.328C70.1079 80.96 69.6999 79.34 69.6999 77.468C69.6999 75.596 70.0839 73.976 70.8519 72.608C71.6439 71.24 72.6999 70.196 74.0199 69.476C75.3399 68.732 76.7919 68.36 78.3759 68.36C80.0079 68.36 81.4359 68.72 82.6599 69.44C83.9079 70.16 84.8559 71.288 85.5039 72.824C86.1519 74.36 86.4039 76.34 86.2599 78.764H71.6079V75.596H84.2439Z" fill="#2E2F32"/>
<path d="M103 81.22C103 82.7667 102.607 83.9933 101.82 84.9C101.047 85.8067 99.86 86.26 98.26 86.26C96.6467 86.26 95.4333 85.82 94.62 84.94C93.8067 84.0467 93.4 82.8067 93.4 81.22V73.24H95V81.12C95 82.4133 95.2667 83.3667 95.8 83.98C96.3333 84.5933 97.1533 84.9 98.26 84.9C99.38 84.9 100.2 84.58 100.72 83.94C101.24 83.3 101.5 82.36 101.5 81.12V73.24H103V81.22ZM107.203 79.78L106.863 80.62C106.876 79.86 107.023 79.1533 107.303 78.5C107.583 77.8333 108.003 77.3 108.563 76.9C109.123 76.5 109.809 76.3 110.623 76.3C111.556 76.3 112.309 76.5933 112.883 77.18C113.469 77.7667 113.763 78.6667 113.763 79.88V86H112.223V80.06C112.223 79.1667 112.029 78.54 111.643 78.18C111.256 77.82 110.729 77.64 110.063 77.64C109.249 77.64 108.569 77.96 108.023 78.6C107.489 79.24 107.223 80.16 107.223 81.36V86H105.663V76.54H107.203V79.78ZM117.809 76.54V86H116.269V76.54H117.809ZM117.029 74.92C116.735 74.92 116.495 74.8333 116.309 74.66C116.122 74.4733 116.029 74.24 116.029 73.96C116.029 73.6933 116.122 73.4733 116.309 73.3C116.495 73.1267 116.735 73.04 117.029 73.04C117.322 73.04 117.562 73.1267 117.749 73.3C117.949 73.4733 118.049 73.6933 118.049 73.96C118.049 74.24 117.949 74.4733 117.749 74.66C117.562 74.8333 117.322 74.92 117.029 74.92ZM121.33 74.34H122.33V83.1C122.33 83.74 122.45 84.1933 122.69 84.46C122.944 84.7133 123.304 84.84 123.77 84.84C124.024 84.84 124.244 84.8133 124.43 84.76C124.617 84.6933 124.757 84.6267 124.85 84.56V85.84C124.757 85.9067 124.604 85.9733 124.39 86.04C124.177 86.1067 123.87 86.14 123.47 86.14C122.684 86.14 122.037 85.92 121.53 85.48C121.024 85.04 120.77 84.3133 120.77 83.3V77.26L121.47 76.54H124.85V77.82H119.53V76.96C119.944 76.9067 120.27 76.7933 120.51 76.62C120.75 76.4467 120.93 76.18 121.05 75.82C121.184 75.46 121.277 74.9667 121.33 74.34Z" fill="#2E2F32"/>
<g clip-path="url(#clip1_1700_23145)">
<path d="M1.372 102.068L3.962 110.132L6.566 102.068H7.644L4.788 111H3.066L0.21 102.068H1.372ZM12.4117 111V109.838C12.2437 110.239 11.9777 110.557 11.6137 110.79C11.259 111.023 10.8297 111.14 10.3257 111.14C9.72832 111.14 9.23832 110.967 8.85566 110.622C8.48232 110.277 8.29566 109.819 8.29566 109.25C8.29566 108.643 8.48699 108.191 8.86966 107.892C9.25232 107.584 9.78432 107.36 10.4657 107.22C10.9603 107.108 11.343 107.015 11.6137 106.94C11.8937 106.856 12.085 106.758 12.1877 106.646C12.2997 106.534 12.3557 106.385 12.3557 106.198C12.365 105.815 12.239 105.54 11.9777 105.372C11.7257 105.204 11.3803 105.12 10.9417 105.12C10.559 105.12 10.2183 105.171 9.91966 105.274C9.63032 105.377 9.37832 105.503 9.16366 105.652C8.95832 105.792 8.79032 105.932 8.65966 106.072V105.022C8.81832 104.845 9.09832 104.667 9.49966 104.49C9.90099 104.303 10.4237 104.21 11.0677 104.21C11.8517 104.21 12.4537 104.401 12.8737 104.784C13.2937 105.157 13.5037 105.745 13.5037 106.548V111H12.4117ZM12.4117 108.564V107.22C12.3277 107.332 12.169 107.439 11.9357 107.542C11.7117 107.635 11.3757 107.738 10.9277 107.85C10.4143 107.971 10.0223 108.13 9.75166 108.326C9.48099 108.522 9.34566 108.821 9.34566 109.222C9.34566 109.549 9.45766 109.819 9.68166 110.034C9.90566 110.239 10.2323 110.342 10.6617 110.342C11.0443 110.342 11.3663 110.253 11.6277 110.076C11.889 109.899 12.085 109.679 12.2157 109.418C12.3463 109.147 12.4117 108.863 12.4117 108.564ZM15.0981 109.404V101.746H16.2461V109.306C16.2461 109.614 16.3115 109.829 16.4421 109.95C16.5728 110.062 16.7455 110.118 16.9601 110.118C17.0348 110.118 17.1048 110.113 17.1701 110.104C17.2448 110.085 17.3148 110.071 17.3801 110.062V111C17.3148 111.019 17.2308 111.037 17.1281 111.056C17.0255 111.075 16.8948 111.084 16.7361 111.084C16.2321 111.084 15.8308 110.944 15.5321 110.664C15.2428 110.375 15.0981 109.955 15.0981 109.404ZM22.9854 111V109.502C22.7987 109.987 22.5047 110.384 22.1034 110.692C21.7114 111 21.2167 111.154 20.6194 111.154C19.9754 111.154 19.448 110.953 19.0374 110.552C18.636 110.141 18.4354 109.516 18.4354 108.676V104.378H19.5274V108.536C19.5274 109.152 19.658 109.591 19.9194 109.852C20.19 110.113 20.554 110.244 21.0114 110.244C21.5714 110.244 22.038 110.02 22.4114 109.572C22.7847 109.115 22.9714 108.461 22.9714 107.612V104.378H24.0634V111H22.9854ZM31.0825 107.108L30.4105 107.416C30.4572 106.903 30.4012 106.473 30.2425 106.128C30.0932 105.783 29.8785 105.526 29.5985 105.358C29.3278 105.19 29.0245 105.106 28.6885 105.106C28.0445 105.106 27.5265 105.321 27.1345 105.75C26.7425 106.179 26.5465 106.837 26.5465 107.724C26.5465 108.545 26.7752 109.166 27.2325 109.586C27.6898 110.006 28.2965 110.216 29.0525 110.216C29.4912 110.216 29.9018 110.155 30.2845 110.034C30.6672 109.903 30.9752 109.726 31.2085 109.502V110.482C31.0592 110.631 30.7792 110.781 30.3685 110.93C29.9578 111.07 29.4912 111.14 28.9685 111.14C28.3058 111.14 27.7085 111.009 27.1765 110.748C26.6445 110.477 26.2245 110.09 25.9165 109.586C25.6178 109.073 25.4685 108.452 25.4685 107.724C25.4685 106.987 25.6085 106.357 25.8885 105.834C26.1778 105.311 26.5652 104.915 27.0505 104.644C27.5358 104.364 28.0678 104.224 28.6465 104.224C29.2252 104.224 29.7385 104.359 30.1865 104.63C30.6345 104.901 30.9752 105.311 31.2085 105.862C31.4418 106.403 31.5305 107.085 31.4745 107.906H25.9585V107.108H31.0825ZM37.7588 111.742V112.512H35.4348V101.746H37.7588V102.516H36.4148V111.742H37.7588ZM41.5472 104.21C42.1072 104.21 42.5925 104.355 43.0032 104.644C43.4232 104.924 43.7405 105.311 43.9552 105.806V101.662H45.0472V111H43.9552V109.488C43.7405 109.983 43.4232 110.379 43.0032 110.678C42.5832 110.977 42.0885 111.126 41.5192 111.126C40.9312 111.126 40.4179 110.977 39.9792 110.678C39.5499 110.379 39.2139 109.969 38.9712 109.446C38.7379 108.923 38.6212 108.335 38.6212 107.682C38.6212 107.019 38.7379 106.427 38.9712 105.904C39.2139 105.381 39.5545 104.971 39.9932 104.672C40.4412 104.364 40.9592 104.21 41.5472 104.21ZM41.8132 105.12C41.3652 105.12 40.9825 105.232 40.6652 105.456C40.3479 105.68 40.1052 105.983 39.9372 106.366C39.7692 106.749 39.6852 107.187 39.6852 107.682C39.6852 108.167 39.7645 108.606 39.9232 108.998C40.0912 109.381 40.3339 109.684 40.6512 109.908C40.9685 110.132 41.3559 110.244 41.8132 110.244C42.2612 110.244 42.6485 110.132 42.9752 109.908C43.3112 109.684 43.5679 109.381 43.7452 108.998C43.9225 108.606 44.0112 108.167 44.0112 107.682C44.0112 107.187 43.9179 106.749 43.7312 106.366C43.5539 105.983 43.3019 105.68 42.9752 105.456C42.6485 105.232 42.2612 105.12 41.8132 105.12ZM52.0415 107.108L51.3695 107.416C51.4162 106.903 51.3602 106.473 51.2015 106.128C51.0522 105.783 50.8375 105.526 50.5575 105.358C50.2868 105.19 49.9835 105.106 49.6475 105.106C49.0035 105.106 48.4855 105.321 48.0935 105.75C47.7015 106.179 47.5055 106.837 47.5055 107.724C47.5055 108.545 47.7342 109.166 48.1915 109.586C48.6488 110.006 49.2555 110.216 50.0115 110.216C50.4502 110.216 50.8608 110.155 51.2435 110.034C51.6262 109.903 51.9342 109.726 52.1675 109.502V110.482C52.0182 110.631 51.7382 110.781 51.3275 110.93C50.9168 111.07 50.4502 111.14 49.9275 111.14C49.2648 111.14 48.6675 111.009 48.1355 110.748C47.6035 110.477 47.1835 110.09 46.8755 109.586C46.5768 109.073 46.4275 108.452 46.4275 107.724C46.4275 106.987 46.5675 106.357 46.8475 105.834C47.1368 105.311 47.5242 104.915 48.0095 104.644C48.4948 104.364 49.0268 104.224 49.6055 104.224C50.1842 104.224 50.6975 104.359 51.1455 104.63C51.5935 104.901 51.9342 105.311 52.1675 105.862C52.4008 106.403 52.4895 107.085 52.4335 107.906H46.9175V107.108H52.0415ZM54.4215 106.072C54.4215 106.333 54.4915 106.534 54.6315 106.674C54.7808 106.805 54.9768 106.907 55.2195 106.982C55.4715 107.047 55.7422 107.103 56.0315 107.15C56.3208 107.187 56.6148 107.248 56.9135 107.332C57.1748 107.397 57.4222 107.5 57.6555 107.64C57.8888 107.78 58.0755 107.971 58.2155 108.214C58.3555 108.447 58.4255 108.755 58.4255 109.138C58.4255 109.586 58.3135 109.959 58.0895 110.258C57.8655 110.557 57.5622 110.781 57.1795 110.93C56.7968 111.07 56.3768 111.14 55.9195 111.14C55.2755 111.14 54.7435 111.061 54.3235 110.902C53.9128 110.734 53.6095 110.571 53.4135 110.412V109.362C53.6468 109.614 53.9688 109.829 54.3795 110.006C54.7995 110.174 55.2755 110.258 55.8075 110.258C56.2555 110.258 56.6288 110.179 56.9275 110.02C57.2262 109.852 57.3755 109.577 57.3755 109.194C57.3755 108.923 57.3055 108.723 57.1655 108.592C57.0255 108.452 56.8388 108.354 56.6055 108.298C56.3722 108.233 56.1062 108.177 55.8075 108.13C55.5182 108.074 55.2195 108.004 54.9115 107.92C54.4355 107.78 54.0668 107.579 53.8055 107.318C53.5535 107.057 53.4275 106.66 53.4275 106.128C53.4275 105.531 53.6468 105.064 54.0855 104.728C54.5335 104.392 55.1262 104.224 55.8635 104.224C56.4608 104.224 56.9322 104.294 57.2775 104.434C57.6322 104.565 57.8935 104.695 58.0615 104.826V105.89C57.8655 105.694 57.5855 105.512 57.2215 105.344C56.8668 105.176 56.4188 105.092 55.8775 105.092C55.4575 105.092 55.1075 105.167 54.8275 105.316C54.5568 105.456 54.4215 105.708 54.4215 106.072ZM64.7091 104.798V105.904C64.4758 105.671 64.1958 105.489 63.8691 105.358C63.5518 105.227 63.2064 105.162 62.8331 105.162C62.4038 105.162 62.0071 105.26 61.6431 105.456C61.2791 105.652 60.9898 105.937 60.7751 106.31C60.5604 106.683 60.4531 107.145 60.4531 107.696C60.4531 108.247 60.5604 108.709 60.7751 109.082C60.9898 109.446 61.2791 109.726 61.6431 109.922C62.0071 110.109 62.4038 110.202 62.8331 110.202C63.2531 110.202 63.6171 110.141 63.9251 110.02C64.2331 109.899 64.4944 109.745 64.7091 109.558V110.538C64.5784 110.659 64.3544 110.79 64.0371 110.93C63.7198 111.07 63.2998 111.14 62.7771 111.14C62.1704 111.14 61.6058 111.005 61.0831 110.734C60.5604 110.463 60.1451 110.071 59.8371 109.558C59.5291 109.045 59.3751 108.424 59.3751 107.696C59.3751 106.959 59.5291 106.333 59.8371 105.82C60.1451 105.307 60.5604 104.915 61.0831 104.644C61.6058 104.373 62.1704 104.238 62.7771 104.238C63.2718 104.238 63.6731 104.299 63.9811 104.42C64.2984 104.541 64.5411 104.667 64.7091 104.798ZM67.2849 107.668V111H66.1929V104.378H67.2709V106.03C67.4295 105.479 67.7049 105.055 68.0969 104.756C68.4982 104.457 68.9835 104.322 69.5529 104.35V105.484C69.4969 105.484 69.4315 105.479 69.3569 105.47C69.2822 105.451 69.2122 105.442 69.1469 105.442C68.8482 105.442 68.5542 105.517 68.2649 105.666C67.9755 105.815 67.7375 106.053 67.5509 106.38C67.3735 106.697 67.2849 107.127 67.2849 107.668ZM71.9607 104.378V111H70.8827V104.378H71.9607ZM71.4147 103.244C71.2093 103.244 71.0413 103.183 70.9107 103.062C70.78 102.931 70.7147 102.768 70.7147 102.572C70.7147 102.385 70.78 102.231 70.9107 102.11C71.0413 101.989 71.2093 101.928 71.4147 101.928C71.62 101.928 71.788 101.989 71.9187 102.11C72.0587 102.231 72.1287 102.385 72.1287 102.572C72.1287 102.768 72.0587 102.931 71.9187 103.062C71.788 103.183 71.62 103.244 71.4147 103.244ZM77.2958 111.126C76.7264 111.126 76.2271 110.977 75.7978 110.678C75.3778 110.37 75.0558 109.973 74.8318 109.488V113.226H73.7398V104.378H74.8178V105.876C75.0511 105.381 75.3778 104.98 75.7978 104.672C76.2271 104.364 76.7264 104.21 77.2958 104.21C77.8838 104.21 78.3924 104.364 78.8218 104.672C79.2511 104.971 79.5824 105.381 79.8158 105.904C80.0584 106.427 80.1798 107.019 80.1798 107.682C80.1798 108.335 80.0584 108.923 79.8158 109.446C79.5824 109.969 79.2511 110.379 78.8218 110.678C78.3924 110.977 77.8838 111.126 77.2958 111.126ZM76.9878 110.244C77.4358 110.244 77.8138 110.132 78.1218 109.908C78.4391 109.684 78.6818 109.381 78.8498 108.998C79.0178 108.606 79.1018 108.167 79.1018 107.682C79.1018 107.178 79.0178 106.735 78.8498 106.352C78.6911 105.969 78.4531 105.671 78.1358 105.456C77.8278 105.232 77.4451 105.12 76.9878 105.12C76.5398 105.12 76.1478 105.232 75.8118 105.456C75.4851 105.671 75.2284 105.969 75.0418 106.352C74.8644 106.735 74.7758 107.178 74.7758 107.682C74.7758 108.167 74.8691 108.606 75.0558 108.998C75.2424 109.381 75.4991 109.684 75.8258 109.908C76.1618 110.132 76.5491 110.244 76.9878 110.244ZM82.2461 102.838H82.9461V108.97C82.9461 109.418 83.0301 109.735 83.1981 109.922C83.3754 110.099 83.6274 110.188 83.9541 110.188C84.1314 110.188 84.2854 110.169 84.4161 110.132C84.5467 110.085 84.6447 110.039 84.7101 109.992V110.888C84.6447 110.935 84.5374 110.981 84.3881 111.028C84.2387 111.075 84.0241 111.098 83.7441 111.098C83.1934 111.098 82.7407 110.944 82.3861 110.636C82.0314 110.328 81.8541 109.819 81.8541 109.11V104.882L82.3441 104.378H84.7101V105.274H80.9861V104.672C81.2754 104.635 81.5041 104.555 81.6721 104.434C81.8401 104.313 81.9661 104.126 82.0501 103.874C82.1434 103.622 82.2087 103.277 82.2461 102.838ZM89.0508 111.126C88.4255 111.126 87.8655 110.977 87.3708 110.678C86.8855 110.379 86.5028 109.969 86.2228 109.446C85.9428 108.923 85.8028 108.335 85.8028 107.682C85.8028 107.01 85.9428 106.417 86.2228 105.904C86.5028 105.381 86.8855 104.971 87.3708 104.672C87.8655 104.364 88.4255 104.21 89.0508 104.21C89.6948 104.21 90.2595 104.364 90.7448 104.672C91.2395 104.971 91.6268 105.381 91.9068 105.904C92.1868 106.417 92.3268 107.01 92.3268 107.682C92.3268 108.335 92.1868 108.923 91.9068 109.446C91.6268 109.969 91.2395 110.379 90.7448 110.678C90.2595 110.977 89.6948 111.126 89.0508 111.126ZM89.0508 110.23C89.5175 110.23 89.9142 110.118 90.2408 109.894C90.5675 109.67 90.8195 109.367 90.9968 108.984C91.1742 108.601 91.2628 108.167 91.2628 107.682C91.2628 107.187 91.1742 106.749 90.9968 106.366C90.8288 105.983 90.5815 105.68 90.2548 105.456C89.9282 105.232 89.5268 105.12 89.0508 105.12C88.5935 105.12 88.2015 105.232 87.8748 105.456C87.5482 105.68 87.2962 105.983 87.1188 106.366C86.9508 106.749 86.8668 107.187 86.8668 107.682C86.8668 108.167 86.9555 108.601 87.1328 108.984C87.3102 109.367 87.5622 109.67 87.8888 109.894C88.2155 110.118 88.6028 110.23 89.0508 110.23ZM94.82 107.668V111H93.728V104.378H94.806V106.03C94.9647 105.479 95.24 105.055 95.632 104.756C96.0334 104.457 96.5187 104.322 97.088 104.35V105.484C97.032 105.484 96.9667 105.479 96.892 105.47C96.8174 105.451 96.7474 105.442 96.682 105.442C96.3834 105.442 96.0894 105.517 95.8 105.666C95.5107 105.815 95.2727 106.053 95.086 106.38C94.9087 106.697 94.82 107.127 94.82 107.668ZM97.8858 102.516V101.746H100.196V112.512H97.8858V111.742H99.2158V102.516H97.8858ZM104.416 109.404V101.746H105.564V109.306C105.564 109.614 105.63 109.829 105.76 109.95C105.891 110.062 106.064 110.118 106.278 110.118C106.353 110.118 106.423 110.113 106.488 110.104C106.563 110.085 106.633 110.071 106.698 110.062V111C106.633 111.019 106.549 111.037 106.446 111.056C106.344 111.075 106.213 111.084 106.054 111.084C105.55 111.084 105.149 110.944 104.85 110.664C104.561 110.375 104.416 109.955 104.416 109.404ZM111.492 111V109.838C111.324 110.239 111.058 110.557 110.694 110.79C110.339 111.023 109.91 111.14 109.406 111.14C108.808 111.14 108.318 110.967 107.936 110.622C107.562 110.277 107.376 109.819 107.376 109.25C107.376 108.643 107.567 108.191 107.95 107.892C108.332 107.584 108.864 107.36 109.546 107.22C110.04 107.108 110.423 107.015 110.694 106.94C110.974 106.856 111.165 106.758 111.268 106.646C111.38 106.534 111.436 106.385 111.436 106.198C111.445 105.815 111.319 105.54 111.058 105.372C110.806 105.204 110.46 105.12 110.022 105.12C109.639 105.12 109.298 105.171 109 105.274C108.71 105.377 108.458 105.503 108.244 105.652C108.038 105.792 107.87 105.932 107.74 106.072V105.022C107.898 104.845 108.178 104.667 108.58 104.49C108.981 104.303 109.504 104.21 110.148 104.21C110.932 104.21 111.534 104.401 111.954 104.784C112.374 105.157 112.584 105.745 112.584 106.548V111H111.492ZM111.492 108.564V107.22C111.408 107.332 111.249 107.439 111.016 107.542C110.792 107.635 110.456 107.738 110.008 107.85C109.494 107.971 109.102 108.13 108.832 108.326C108.561 108.522 108.426 108.821 108.426 109.222C108.426 109.549 108.538 109.819 108.762 110.034C108.986 110.239 109.312 110.342 109.742 110.342C110.124 110.342 110.446 110.253 110.708 110.076C110.969 109.899 111.165 109.679 111.296 109.418C111.426 109.147 111.492 108.863 111.492 108.564ZM117.86 111.126C117.291 111.126 116.792 110.977 116.362 110.678C115.942 110.37 115.616 109.969 115.382 109.474V111H114.304V101.662H115.396V105.876C115.62 105.372 115.942 104.971 116.362 104.672C116.792 104.364 117.291 104.21 117.86 104.21C118.448 104.21 118.957 104.364 119.386 104.672C119.816 104.971 120.147 105.381 120.38 105.904C120.623 106.427 120.744 107.019 120.744 107.682C120.744 108.335 120.623 108.923 120.38 109.446C120.147 109.969 119.816 110.379 119.386 110.678C118.957 110.977 118.448 111.126 117.86 111.126ZM117.552 110.244C118 110.244 118.378 110.132 118.686 109.908C119.004 109.684 119.246 109.381 119.414 108.998C119.582 108.606 119.666 108.167 119.666 107.682C119.666 107.178 119.582 106.735 119.414 106.352C119.256 105.969 119.018 105.671 118.7 105.456C118.392 105.232 118.01 105.12 117.552 105.12C117.104 105.12 116.712 105.232 116.376 105.456C116.05 105.671 115.793 105.969 115.606 106.352C115.429 106.735 115.34 107.178 115.34 107.682C115.34 108.167 115.434 108.606 115.62 108.998C115.807 109.381 116.064 109.684 116.39 109.908C116.726 110.132 117.114 110.244 117.552 110.244ZM127.333 107.108L126.661 107.416C126.707 106.903 126.651 106.473 126.493 106.128C126.343 105.783 126.129 105.526 125.849 105.358C125.578 105.19 125.275 105.106 124.939 105.106C124.295 105.106 123.777 105.321 123.385 105.75C122.993 106.179 122.797 106.837 122.797 107.724C122.797 108.545 123.025 109.166 123.483 109.586C123.94 110.006 124.547 110.216 125.303 110.216C125.741 110.216 126.152 110.155 126.535 110.034C126.917 109.903 127.225 109.726 127.459 109.502V110.482C127.309 110.631 127.029 110.781 126.619 110.93C126.208 111.07 125.741 111.14 125.219 111.14C124.556 111.14 123.959 111.009 123.427 110.748C122.895 110.477 122.475 110.09 122.167 109.586C121.868 109.073 121.719 108.452 121.719 107.724C121.719 106.987 121.859 106.357 122.139 105.834C122.428 105.311 122.815 104.915 123.301 104.644C123.786 104.364 124.318 104.224 124.897 104.224C125.475 104.224 125.989 104.359 126.437 104.63C126.885 104.901 127.225 105.311 127.459 105.862C127.692 106.403 127.781 107.085 127.725 107.906H122.209V107.108H127.333ZM128.999 109.404V101.746H130.147V109.306C130.147 109.614 130.212 109.829 130.343 109.95C130.473 110.062 130.646 110.118 130.861 110.118C130.935 110.118 131.005 110.113 131.071 110.104C131.145 110.085 131.215 110.071 131.281 110.062V111C131.215 111.019 131.131 111.037 131.029 111.056C130.926 111.075 130.795 111.084 130.637 111.084C130.133 111.084 129.731 110.944 129.433 110.664C129.143 110.375 128.999 109.955 128.999 109.404Z" fill="#2E2F32"/>
</g>
<defs>
<clipPath id="clip0_1700_23145">
<rect width="159" height="24" fill="white"/>
</clipPath>
<clipPath id="clip1_1700_23145">
<rect width="159" height="20" fill="white" transform="translate(0 96)"/>
</clipPath>
</defs>
</svg>
