<svg width="14" height="14" viewBox="0 0 14 14" fill="none" xmlns="http://www.w3.org/2000/svg">
<path fill-rule="evenodd" clip-rule="evenodd" d="M3.5 0C2.94772 0 2.5 0.447715 2.5 1V8H3.5V1H13V11.5C13 12.3284 12.3284 13 11.5 13C10.6716 13 10 12.3284 10 11.5V10.25C10 9.83579 9.66421 9.5 9.25 9.5H0.75C0.335786 9.5 0 9.83579 0 10.25V11.5C0 12.8807 1.11929 14 2.5 14H11.5C12.8807 14 14 12.8807 14 11.5V1C14 0.447716 13.5523 0 13 0H3.5ZM2.5 13C1.67157 13 1 12.3284 1 11.5V10.5H9V11.5C9 12.0628 9.18597 12.5822 9.49982 13H2.5ZM5 4H7V3H5V4ZM5 5V6H9V5H5ZM5 8H11V7H5V8Z" fill="#2E2F32"/>
</svg>
