<svg width="14" height="14" viewBox="0 0 14 14" fill="none" xmlns="http://www.w3.org/2000/svg">
<path fill-rule="evenodd" clip-rule="evenodd" d="M7 14C3.13401 14 0 10.866 0 7C0 3.13401 3.13401 0 7 0C10.866 0 14 3.13401 14 7C14 10.866 10.866 14 7 14ZM11.5815 3.12558L3.12558 11.5815C4.17092 12.4664 5.52315 13 7 13C10.3137 13 13 10.3137 13 7C13 5.52315 12.4664 4.17092 11.5815 3.12558ZM1 7C1 8.47685 1.53358 9.82908 2.41847 10.8744L10.8744 2.41847C9.82908 1.53358 8.47685 1 7 1C3.68629 1 1 3.68629 1 7Z" fill="#2E2F32"/>
</svg>
