<svg width="14" height="12" viewBox="0 0 14 12" fill="none" xmlns="http://www.w3.org/2000/svg">
<path fill-rule="evenodd" clip-rule="evenodd" d="M0 0.7C0 0.313401 0.313401 0 0.7 0H4.5V1H1V11H4.5V12H0.7C0.313402 12 0 11.6866 0 11.3V0.7ZM13.0001 1H9.50012V0H13.3001C13.6867 0 14.0001 0.3134 14.0001 0.7V11.3C14.0001 11.6866 13.6867 12 13.3001 12H9.50012V11H13.0001V1ZM4.50012 8V4H5.50012V8H4.50012ZM10.5001 8V4H11.5001V8H10.5001ZM8.50012 8V4H9.50012V8H8.50012ZM6.50012 8V4H7.50012V8H6.50012ZM2.50012 8V4H3.50012V8H2.50012Z" fill="#2E2F32"/>
</svg>
