<svg width="13" height="14" viewBox="0 0 13 14" fill="none" xmlns="http://www.w3.org/2000/svg">
<path fill-rule="evenodd" clip-rule="evenodd" d="M7 0V1.02469C9.52667 1.27555 11.5 3.40732 11.5 6V8.42957C11.5 8.51699 11.5313 8.60152 11.5882 8.66789L12.8796 10.1746C13.0067 10.3229 13.0359 10.5315 12.9543 10.7089C12.8727 10.8863 12.6953 11 12.5 11H0.500007C0.304742 11 0.127343 10.8863 0.0457508 10.7089C-0.035842 10.5315 -0.00669779 10.3229 0.120379 10.1746L1.41185 8.66789C1.46874 8.60152 1.50001 8.51699 1.50001 8.42957V6C1.50001 3.40733 3.47334 1.27555 6 1.02469V0H7ZM10.5 6C10.5 3.79086 8.70915 2 6.50001 2C4.29087 2 2.50001 3.79086 2.50001 6V8.42957C2.50001 8.7557 2.38334 9.07107 2.1711 9.31868L1.58712 10H11.4129L10.8289 9.31868C10.6167 9.07107 10.5 8.7557 10.5 8.42957V6ZM6.5 13C5.67157 13 5 12.3284 5 11.5H4C4 12.8807 5.11929 14 6.5 14C7.88071 14 9 12.8807 9 11.5H8C8 12.3284 7.32843 13 6.5 13Z" fill="#2E2F32"/>
</svg>
