<svg width="10" height="13" viewBox="0 0 10 13" fill="none" xmlns="http://www.w3.org/2000/svg">
<path fill-rule="evenodd" clip-rule="evenodd" d="M5.10373 0.100003C4.95222 -0.0136288 4.74951 -0.0319067 4.58012 0.0527893C4.41073 0.137485 4.30373 0.310617 4.30373 0.500003V5.42939L0.60745 2.60282L0 3.39718L4.05754 6.5L0 9.60282L0.60745 10.3972L4.30373 7.57062V12.5C4.30373 12.6894 4.41073 12.8625 4.58012 12.9472C4.74951 13.0319 4.95222 13.0136 5.10373 12.9L9.10373 9.9C9.22897 9.80607 9.30299 9.65889 9.30372 9.50234C9.30445 9.34578 9.23181 9.19792 9.10745 9.10282L5.70376 6.5L9.10745 3.89718C9.23181 3.80208 9.30445 3.65422 9.30372 3.49767C9.30299 3.34111 9.22897 3.19394 9.10373 3.1L5.10373 0.100003ZM7.97555 9.49613L5.30373 7.45297V11.5L7.97555 9.49613ZM5.30373 1.5V5.54703L7.97555 3.50387L5.30373 1.5Z" fill="#2E2F32"/>
</svg>
