<svg width="14" height="14" viewBox="0 0 14 14" fill="none" xmlns="http://www.w3.org/2000/svg">
<path fill-rule="evenodd" clip-rule="evenodd" d="M0.595032 2.74074L6.59503 0.0855943C6.85293 -0.0285316 7.14707 -0.0285314 7.40497 0.0855945L13.405 2.74074C13.7667 2.90083 14 3.25896 14 3.65427V10.3467C14 10.7421 13.7667 11.1003 13.4048 11.2603L7.40484 13.9145C7.14702 14.0285 6.85298 14.0285 6.59516 13.9145L0.595159 11.2603C0.233333 11.1003 0 10.7421 0 10.3467V3.65427C0 3.25897 0.233274 2.90083 0.595032 2.74074ZM1 10.3467L7 13.0009L13 10.3467L13 4.28444L7.62864 6.76135C7.58639 6.78083 7.54347 6.79825 7.5 6.81361V10.9971H6.5V6.81357C6.45657 6.79822 6.41368 6.78082 6.37147 6.76135L1 4.28438V10.3467ZM7.20959 5.85419L12.4796 3.42399L10.2068 2.41822L10.2236 2.45172L5.03405 5.04421L6.79053 5.85419C6.92347 5.91549 7.07664 5.91549 7.20959 5.85419ZM9.06555 1.91318L7 0.999123L1.52043 3.42397L3.87129 4.50803L9.06555 1.91318Z" fill="#2E2F32"/>
</svg>
