<svg width="13" height="14" viewBox="0 0 13 14" fill="none" xmlns="http://www.w3.org/2000/svg">
<path fill-rule="evenodd" clip-rule="evenodd" d="M0.5 1H3V0H4V1H9V0H10V1H12.5C12.7761 1 13 1.22386 13 1.5V5C13 5.27614 12.7761 5.5 12.5 5.5H0.5C0.223858 5.5 0 5.27614 0 5V1.5C0 1.22386 0.223858 1 0.5 1ZM10 3H9V2H4V3H3V2H1V4.5H12V2H10V3ZM0 12V6.5H1V12C1 12.2761 1.22386 12.5 1.5 12.5H11.5C11.7761 12.5 12 12.2761 12 12V6.5H13V12C13 12.8284 12.3284 13.5 11.5 13.5H1.5C0.671573 13.5 0 12.8284 0 12Z" fill="#2E2F32"/>
</svg>
