<svg width="14" height="12" viewBox="0 0 14 12" fill="none" xmlns="http://www.w3.org/2000/svg">
<path fill-rule="evenodd" clip-rule="evenodd" d="M5.75 0C5.27786 0 4.83328 0.222291 4.55 0.6L3.5 2H1.5C0.671573 2 0 2.67157 0 3.5V10.5C0 11.3284 0.671573 12 1.5 12H12.5C13.3284 12 14 11.3284 14 10.5V3.5C14 2.67157 13.3284 2 12.5 2H10.5L9.45 0.6C9.16672 0.222291 8.72214 0 8.25 0H5.75ZM5.35 1.2C5.44443 1.0741 5.59262 1 5.75 1H8.25C8.40738 1 8.55557 1.0741 8.65 1.2L10 3H12.5C12.7761 3 13 3.22386 13 3.5V10.5C13 10.7761 12.7761 11 12.5 11H1.5C1.22386 11 1 10.7761 1 10.5V3.5C1 3.22386 1.22386 3 1.5 3H4L5.35 1.2ZM10.5 6.5C10.5 8.433 8.933 10 7 10C5.067 10 3.5 8.433 3.5 6.5C3.5 4.567 5.067 3 7 3C8.933 3 10.5 4.567 10.5 6.5ZM9.5 6.5C9.5 5.11929 8.38071 4 7 4C5.61929 4 4.5 5.11929 4.5 6.5C4.5 7.88071 5.61929 9 7 9C8.38071 9 9.5 7.88071 9.5 6.5ZM12 4.5C12 4.77614 11.7761 5 11.5 5C11.2239 5 11 4.77614 11 4.5C11 4.22386 11.2239 4 11.5 4C11.7761 4 12 4.22386 12 4.5Z" fill="#2E2F32"/>
</svg>
