<svg width="14" height="14" viewBox="0 0 14 14" fill="none" xmlns="http://www.w3.org/2000/svg">
<path fill-rule="evenodd" clip-rule="evenodd" d="M2.87546 0C2.41659 0 2.01661 0.312297 1.90532 0.757464L1 4.37873L1.97014 4.62127L2.87546 1H11.0947L12 4.62127L12.9701 4.37873L12.0648 0.757464C11.9535 0.312297 11.5536 0 11.0947 0H2.87546ZM3.25 10C3.94036 10 4.5 9.44036 4.5 8.75C4.5 8.05964 3.94036 7.5 3.25 7.5C2.55964 7.5 2 8.05964 2 8.75C2 9.44036 2.55964 10 3.25 10ZM10.75 10C11.4404 10 12 9.44036 12 8.75C12 8.05964 11.4404 7.5 10.75 7.5C10.0596 7.5 9.5 8.05964 9.5 8.75C9.5 9.44036 10.0596 10 10.75 10ZM8.5 9.25H5.5V8.25H8.5V9.25ZM0.5 5.5C0.223858 5.5 0 5.72386 0 6V11.5C0 11.7761 0.223857 12 0.5 12L0.5 13.5C0.5 13.7761 0.723858 14 1 14H3.5C3.77614 14 4 13.7761 4 13.5V12H10V13.5C10 13.7761 10.2239 14 10.5 14H13C13.2761 14 13.5 13.7761 13.5 13.5V12C13.7761 12 14 11.7761 14 11.5V6C14 5.72386 13.7761 5.5 13.5 5.5H0.5ZM11 13V12H12.5V13H11ZM1 6.5H13V11H1V6.5ZM1.5 13V12H3V13H1.5Z" fill="#2E2F32"/>
</svg>
