<svg width="14" height="10" viewBox="0 0 14 10" fill="none" xmlns="http://www.w3.org/2000/svg">
<path fill-rule="evenodd" clip-rule="evenodd" d="M0 1.5C0 0.671573 0.671573 0 1.5 0H12.5C13.3284 0 14 0.671572 14 1.5V3.99998H1V8.5C1 8.77614 1.22386 9 1.5 9H12.5C12.7761 9 13 8.77614 13 8.5V5.5H14V8.5C14 9.32843 13.3284 10 12.5 10H1.5C0.671573 10 0 9.32843 0 8.5V1.5ZM1 2.99998H13V1.5C13 1.22386 12.7761 1 12.5 1H1.5C1.22386 1 1 1.22386 1 1.5V2.99998ZM5.50012 7H2.50012V6H5.50012V7Z" fill="#2E2F32"/>
</svg>
