<svg width="14" height="13" viewBox="0 0 14 13" fill="none" xmlns="http://www.w3.org/2000/svg">
<path fill-rule="evenodd" clip-rule="evenodd" d="M2.64307 9.22704L1.55419 11.4747L4 10.3672V11.465L0.708067 12.9555C0.308589 13.1363 -0.0978383 12.756 0.0210152 12.361L0.0519473 12.2819L1.50188 9.289L1.36135 9.06466C0.874426 8.24578 0.59562 7.30953 0.548953 6.33213L0.54194 6.03775C0.54194 2.68922 3.56731 0 7.27191 0C10.9765 0 14.0019 2.68922 14.0019 6.03775C14.0019 9.38628 10.9765 12.0755 7.27191 12.0755C6.81544 12.0755 6.39769 12.0558 6 12.005V10.9955C6.38231 11.0527 6.79595 11.0755 7.27191 11.0755C10.5319 11.0755 13.0019 8.73216 13.0019 6.03775C13.0019 3.34335 10.5319 1 7.27191 1C4.01649 1 1.54885 3.3368 1.54195 6.02645L1.54837 6.29584C1.58885 7.1058 1.8194 7.87479 2.21525 8.54408L2.64307 9.22704Z" fill="#2E2F32"/>
</svg>
