<svg width="14" height="14" viewBox="0 0 14 14" fill="none" xmlns="http://www.w3.org/2000/svg">
<path fill-rule="evenodd" clip-rule="evenodd" d="M7 14C10.866 14 14 10.866 14 7C14 3.13401 10.866 0 7 0C3.13401 0 0 3.13401 0 7C0 10.866 3.13401 14 7 14ZM7 1C10.3137 1 13 3.68629 13 7C13 10.3137 10.3137 13 7 13C3.68629 13 1 10.3137 1 7C1 3.68629 3.68629 1 7 1ZM10.8536 4.85353L5.85359 9.85353C5.65833 10.0488 5.34175 10.0488 5.14648 9.85353L3.14648 7.85353L3.85359 7.14642L5.50004 8.79287L10.1465 4.14642L10.8536 4.85353Z" fill="#2E2F32"/>
</svg>
