<svg width="14" height="14" viewBox="0 0 14 14" fill="none" xmlns="http://www.w3.org/2000/svg">
<path fill-rule="evenodd" clip-rule="evenodd" d="M7 1C8.5913 1 10.1174 1.63214 11.2426 2.75736C12.3679 3.88258 13 5.4087 13 7C13 8.18669 12.6481 9.34673 11.9888 10.3334C11.3295 11.3201 10.3925 12.0892 9.2961 12.5433C8.19975 12.9974 6.99335 13.1162 5.82946 12.8847C4.66557 12.6532 3.59648 12.0818 2.75736 11.2426C1.91825 10.4035 1.3468 9.33443 1.11529 8.17054C0.88378 7.00666 1.0026 5.80026 1.45673 4.7039C1.91085 3.60754 2.67989 2.67047 3.66658 2.01118C4.65328 1.35189 5.81332 1 7 1ZM12.8203 10.889C13.5895 9.73785 14 8.38447 14 7C14 5.14348 13.2625 3.36301 11.9498 2.05025C10.637 0.737498 8.85652 0 7 0C5.61553 0 4.26216 0.410543 3.11101 1.17971C1.95987 1.94888 1.06266 3.04213 0.532848 4.32122C0.00303441 5.6003 -0.135591 7.00776 0.134506 8.36563C0.404602 9.7235 1.07129 10.9708 2.05025 11.9497C3.02922 12.9287 4.27651 13.5954 5.63437 13.8655C6.99224 14.1356 8.3997 13.997 9.67879 13.4672C10.9579 12.9373 12.0511 12.0401 12.8203 10.889ZM6.5 7V2.5H7.5V6.79L9.35 8.65L8.65 9.35L6.65 7.35C6.60197 7.30535 6.5638 7.25115 6.53797 7.19087C6.51214 7.13059 6.4992 7.06558 6.5 7Z" fill="#2E2F32"/>
</svg>
