<svg width="7" height="14" viewBox="0 0 7 14" fill="none" xmlns="http://www.w3.org/2000/svg">
<path fill-rule="evenodd" clip-rule="evenodd" d="M5.02245 4.42581C4.93114 4.27004 4.80615 4.13669 4.65662 4.03548C4.31667 3.81072 3.91541 3.69683 3.50806 3.70953C3.21115 3.70611 2.91626 3.75878 2.63888 3.86475C2.41874 3.95237 2.22588 4.097 2.08013 4.2838C1.94486 4.45615 1.87355 4.67008 1.87835 4.88912C1.87704 5.06252 1.91976 5.23343 2.00252 5.38581C2.09776 5.52212 2.2191 5.63818 2.35951 5.72727C2.51863 5.82235 2.68465 5.90536 2.85618 5.97562L3.41494 6.13081L4.2686 6.4102C4.60896 6.48834 4.94145 6.59743 5.26194 6.73613C5.56484 6.85834 5.84743 7.02582 6.10008 7.23282C6.35631 7.43775 6.56319 7.69765 6.7054 7.99333C6.855 8.30825 6.92939 8.65364 6.92269 9.00222C6.93447 9.4982 6.7936 9.98581 6.51915 10.3991C6.2248 10.8212 5.81535 11.1498 5.33955 11.3459C4.9866 11.4917 4.61614 11.5908 4.23755 11.6408V14H2.68545V11.5942C2.33871 11.5526 1.99928 11.4639 1.67658 11.3304C1.18501 11.1394 0.762888 10.8039 0.465936 10.3681C0.154592 9.91098 -0.00802559 9.36892 0.00030478 8.81595H1.55241C1.56881 9.09875 1.67176 9.36967 1.84731 9.592C2.02244 9.8095 2.25301 9.97575 2.51472 10.0732C2.81472 10.1749 3.12921 10.2273 3.44598 10.2284C3.76458 10.2329 4.08097 10.1749 4.37724 10.0576C4.6242 9.96417 4.84322 9.80926 5.0136 9.60754C5.16794 9.41974 5.25046 9.18317 5.24642 8.94012C5.25324 8.72278 5.17533 8.5113 5.02913 8.35034C4.87685 8.17787 4.68516 8.04475 4.47037 7.96231C4.19475 7.84383 3.90905 7.75031 3.61671 7.68292L2.59232 7.41906C1.94078 7.27705 1.33354 6.97876 0.82292 6.54989C0.612542 6.35134 0.446953 6.11017 0.337214 5.84252C0.227475 5.57486 0.176112 5.28687 0.186557 4.99778C0.170615 4.49658 0.323681 4.00459 0.621146 3.6009C0.923041 3.18965 1.33067 2.86783 1.80075 2.66962C2.06889 2.54932 2.35018 2.46077 2.63888 2.40577V0H4.19099V2.32816C4.53259 2.39088 4.86243 2.50607 5.16882 2.66962C5.62572 2.86825 6.02197 3.18417 6.31737 3.58536C6.59182 3.98204 6.73808 4.45332 6.73644 4.93568H5.18434C5.16907 4.75578 5.11376 4.58157 5.02245 4.42581Z" fill="#2E2F32"/>
</svg>
