<svg width="14" height="14" viewBox="0 0 14 14" fill="none" xmlns="http://www.w3.org/2000/svg">
<path fill-rule="evenodd" clip-rule="evenodd" d="M11.2426 2.75735C12.3679 3.88257 13 5.4087 13 7C13 8.18669 12.6481 9.34672 11.9888 10.3334C11.3295 11.3201 10.3925 12.0891 9.2961 12.5433C8.19975 12.9974 6.99335 13.1162 5.82946 12.8847C4.66558 12.6532 3.59648 12.0818 2.75736 11.2426C1.91825 10.4035 1.3468 9.33443 1.11529 8.17055C0.88378 7.00666 1.0026 5.80026 1.45673 4.7039C1.91085 3.60755 2.67989 2.67047 3.66658 2.01118C4.65328 1.3519 5.81332 1 7 1C8.5913 1 10.1174 1.63214 11.2426 2.75735ZM12.8203 10.889C13.5895 9.73785 14 8.38447 14 7C14 5.14348 13.2625 3.363 11.9497 2.05025C10.637 0.737493 8.85652 0 7 0C5.61553 0 4.26216 0.410548 3.11101 1.17972C1.95987 1.94889 1.06266 3.04213 0.532846 4.32121C0.00303298 5.6003 -0.13559 7.00776 0.134506 8.36563C0.404603 9.7235 1.07129 10.9708 2.05026 11.9498C3.02922 12.9287 4.2765 13.5954 5.63437 13.8655C6.99224 14.1356 8.3997 13.997 9.67879 13.4672C10.9579 12.9373 12.0511 12.0401 12.8203 10.889ZM8.0357 5.35149C7.97687 5.25113 7.89634 5.16521 7.8 5.10001C7.58098 4.95519 7.32245 4.88182 7.06 4.89C6.86871 4.88779 6.67871 4.92173 6.5 4.99001C6.35817 5.04646 6.23391 5.13964 6.14 5.25999C6.05285 5.37104 6.00691 5.50887 6.01 5.64999C6.00916 5.76171 6.03668 5.87182 6.09 5.97C6.15137 6.05782 6.22954 6.1326 6.32 6.19C6.42252 6.25126 6.52949 6.30474 6.64 6.35001L7 6.45L7.55 6.63C7.76929 6.68035 7.98352 6.75063 8.19 6.84C8.38515 6.91873 8.56723 7.02663 8.73 7.16C8.89509 7.29204 9.02838 7.45949 9.12 7.64999C9.21639 7.85289 9.26431 8.07542 9.26 8.3C9.26759 8.61956 9.17683 8.93372 9 9.2C8.81036 9.47196 8.54655 9.68369 8.24 9.81C8.0126 9.90392 7.77392 9.9678 7.53 10V11.52H6.53V9.97C6.30661 9.9432 6.08792 9.88601 5.88 9.8C5.56329 9.67697 5.29133 9.46078 5.1 9.17999C4.89941 8.88551 4.79464 8.53627 4.8 8.17999H5.8C5.81057 8.3622 5.8769 8.53675 5.99 8.67999C6.10284 8.82013 6.25139 8.92724 6.42 8.99001C6.61329 9.05552 6.81592 9.08928 7.02 9.09C7.22527 9.09291 7.42912 9.05554 7.62 8.98C7.77911 8.91978 7.92023 8.81997 8.03 8.69C8.12944 8.56901 8.1826 8.41658 8.18 8.25999C8.1844 8.11996 8.1342 7.98371 8.04 7.88C7.9419 7.76889 7.81839 7.68312 7.68 7.63C7.50243 7.55367 7.31835 7.49342 7.13 7.45L6.47 7.28C6.05023 7.1885 5.65899 6.99632 5.33 6.72C5.19446 6.59208 5.08777 6.4367 5.01707 6.26425C4.94637 6.0918 4.91327 5.90626 4.92 5.72C4.90973 5.39709 5.00835 5.0801 5.2 4.82001C5.39451 4.55505 5.65714 4.3477 5.96 4.22C6.13277 4.14249 6.31399 4.08544 6.5 4.05V2.5H7.5V4C7.72009 4.04041 7.9326 4.11462 8.13 4.22C8.42438 4.34797 8.67968 4.55152 8.87 4.81C9.04683 5.06558 9.14106 5.36921 9.14 5.67999H8.14C8.13017 5.56408 8.09453 5.45184 8.0357 5.35149Z" fill="#2E2F32"/>
</svg>
