<svg width="14" height="14" viewBox="0 0 14 14" fill="none" xmlns="http://www.w3.org/2000/svg">
<path fill-rule="evenodd" clip-rule="evenodd" d="M14 7C14 8.38447 13.5895 9.73785 12.8203 10.889C12.0511 12.0401 10.9579 12.9373 9.67879 13.4672C8.3997 13.997 6.99224 14.1356 5.63437 13.8655C4.2765 13.5954 3.02922 12.9287 2.05026 11.9498C1.07129 10.9708 0.404603 9.7235 0.134506 8.36563C-0.13559 7.00776 0.00303298 5.6003 0.532846 4.32121C1.06266 3.04213 1.95987 1.94889 3.11101 1.17972C4.26216 0.410548 5.61553 0 7 0C8.85652 0 10.637 0.737493 11.9497 2.05025C13.2625 3.363 14 5.14348 14 7ZM7.06 4.89C7.32245 4.88182 7.58097 4.95519 7.8 5.10001C7.89634 5.16521 7.97687 5.25113 8.0357 5.35149C8.09453 5.45184 8.13017 5.56408 8.14 5.67999H9.14C9.14106 5.36921 9.04683 5.06558 8.87 4.81C8.67968 4.55152 8.42438 4.34797 8.13 4.22C7.9326 4.11462 7.72009 4.04041 7.5 4V2.5H6.5V4.05C6.31399 4.08544 6.13276 4.14249 5.96 4.22C5.65714 4.3477 5.39451 4.55505 5.2 4.82001C5.00835 5.0801 4.90973 5.39709 4.92 5.72C4.91327 5.90626 4.94636 6.0918 5.01707 6.26425C5.08777 6.4367 5.19446 6.59208 5.33 6.72C5.65899 6.99632 6.05022 7.1885 6.47 7.28L7.13 7.45C7.31835 7.49342 7.50242 7.55367 7.68 7.63C7.81839 7.68312 7.94189 7.76889 8.04 7.88C8.1342 7.98371 8.1844 8.11996 8.18 8.25999C8.1826 8.41658 8.12943 8.56901 8.03 8.69C7.92023 8.81997 7.77911 8.91978 7.62 8.98C7.42912 9.05554 7.22527 9.09291 7.02 9.09C6.81591 9.08928 6.61329 9.05552 6.42 8.99001C6.25139 8.92724 6.10284 8.82013 5.99 8.67999C5.8769 8.53675 5.81057 8.3622 5.8 8.17999H4.8C4.79463 8.53627 4.89941 8.88551 5.1 9.17999C5.29132 9.46078 5.56329 9.67697 5.88 9.8C6.08791 9.88601 6.3066 9.9432 6.53 9.97V11.52H7.53V10C7.77392 9.9678 8.0126 9.90392 8.24 9.81C8.54655 9.68369 8.81035 9.47196 9 9.2C9.17682 8.93372 9.26758 8.61955 9.26 8.3C9.26431 8.07542 9.21638 7.85289 9.12 7.64999C9.02838 7.45949 8.89509 7.29204 8.73 7.16C8.56722 7.02663 8.38515 6.91873 8.19 6.84C7.98352 6.75063 7.76929 6.68035 7.55 6.63L7 6.45L6.64 6.35001C6.52949 6.30474 6.42252 6.25126 6.32 6.19C6.22954 6.1326 6.15136 6.05782 6.09 5.97C6.03668 5.87182 6.00915 5.76171 6.01 5.64999C6.0069 5.50887 6.05285 5.37104 6.14 5.25999C6.23391 5.13964 6.35816 5.04646 6.5 4.99001C6.67871 4.92173 6.8687 4.88779 7.06 4.89Z" fill="#2E2F32"/>
</svg>
