<svg width="14" height="14" viewBox="0 0 14 14" fill="none" xmlns="http://www.w3.org/2000/svg">
<path fill-rule="evenodd" clip-rule="evenodd" d="M7.46541 0C9.81058 0 11.7615 1.76641 12.0898 4.07933L12.106 4.218L12.1885 4.26217C13.2325 4.8544 13.9242 5.95598 13.9942 7.19674L14 7.40476C14 9.32531 12.5479 10.8923 10.6933 10.9947L10.5 11V10C11.8859 10 13 8.84682 13 7.40476C13 6.34278 12.3741 5.40195 11.4375 5.00479C11.2611 4.93002 11.143 4.7611 11.1333 4.56982C11.0318 2.57136 9.41906 1 7.46541 1C5.58465 1 4.00966 2.45946 3.81343 4.36794C3.78857 4.60975 3.59339 4.79865 3.35089 4.81559C2.03399 4.90757 1 6.03572 1 7.40476C1 8.78317 2.0443 9.90681 3.3594 9.99449L3.52515 10H7.5V11H3.52515C1.57567 11 0 9.38783 0 7.40476C0 5.70979 1.1547 4.2746 2.72297 3.90295L2.876 3.87L2.88278 3.83341C3.29679 1.7059 5.09048 0.106069 7.24843 0.00506804L7.46541 0ZM9.5 12.4999V8H8.5V12.5L7.29995 11.6L6.69995 12.4L8.69995 13.9C8.87773 14.0333 9.12217 14.0333 9.29995 13.9L11.3 12.4L10.7 11.6L9.5 12.4999Z" fill="#2E2F32"/>
</svg>
