<svg width="14" height="12" viewBox="0 0 14 12" fill="none" xmlns="http://www.w3.org/2000/svg">
<path fill-rule="evenodd" clip-rule="evenodd" d="M0 1.5C0 0.671573 0.671573 0 1.5 0H12.5C13.3284 0 14 0.671572 14 1.5V10.5C14 11.3284 13.3284 12 12.5 12H1.5C0.671573 12 0 11.3284 0 10.5V1.5ZM1.5 1C1.22386 1 1 1.22386 1 1.5V10.5C1 10.7761 1.22386 11 1.5 11H12.5C12.7761 11 13 10.7761 13 10.5V1.5C13 1.22386 12.7761 1 12.5 1H1.5ZM6.22818 6.12008L1.74268 3.42878L2.25717 2.57129L6.74268 5.26259C6.90102 5.3576 7.09883 5.3576 7.25717 5.26259L11.7427 2.57129L12.2572 3.42878L7.77167 6.12008C7.29664 6.4051 6.7032 6.4051 6.22818 6.12008Z" fill="#2E2F32"/>
</svg>
