<svg width="14" height="14" viewBox="0 0 14 14" fill="none" xmlns="http://www.w3.org/2000/svg">
<path fill-rule="evenodd" clip-rule="evenodd" d="M14 7C14 10.866 10.866 14 7 14C3.13401 14 0 10.866 0 7C0 3.13401 3.13401 0 7 0C10.866 0 14 3.13401 14 7ZM6.08333 3.12012L6.36905 8.19612H7.64286L7.91667 3.12012H6.08333ZM6.28571 10.6321C6.47619 10.7921 6.71429 10.8721 7 10.8721C7.27778 10.8721 7.5119 10.7921 7.70238 10.6321C7.90079 10.4641 8 10.2321 8 9.93612C8 9.65612 7.90079 9.42812 7.70238 9.25212C7.5119 9.07612 7.27778 8.98812 7 8.98812C6.71429 8.98812 6.47619 9.07612 6.28571 9.25212C6.09524 9.42812 6 9.65612 6 9.93612C6 10.2321 6.09524 10.4641 6.28571 10.6321Z" fill="#2E2F32"/>
</svg>
