<svg width="12" height="9" viewBox="0 0 12 9" fill="none" xmlns="http://www.w3.org/2000/svg">
<path fill-rule="evenodd" clip-rule="evenodd" d="M6 1C3.43756 1 1.74541 2.8442 0.821864 4.27447L0 3.72553C0.978477 2.21021 2.92776 0 6 0C9.07224 0 11.0215 2.21021 12 3.72553L11.1781 4.27447C10.2546 2.8442 8.56244 1 6 1ZM6 8C3.43756 8 1.74541 6.1558 0.821864 4.72553L0 5.27447C0.978477 6.78979 2.92776 9 6 9C9.07224 9 11.0215 6.78979 12 5.27447L11.1781 4.72553C10.2546 6.1558 8.56244 8 6 8ZM6.00006 7C7.35764 7 8.45818 5.88071 8.45818 4.5C8.45818 3.11929 7.35764 2 6.00006 2C4.64248 2 3.54195 3.11929 3.54195 4.5C3.54195 5.88071 4.64248 7 6.00006 7ZM6.00006 3C6.81461 3 7.47493 3.67157 7.47493 4.5C7.47493 5.32843 6.81461 6 6.00006 6C5.18552 6 4.52519 5.32843 4.52519 4.5C4.52519 3.67157 5.18552 3 6.00006 3Z" fill="#2E2F32"/>
</svg>
