<svg width="12" height="11" viewBox="0 0 12 11" fill="none" xmlns="http://www.w3.org/2000/svg">
<path fill-rule="evenodd" clip-rule="evenodd" d="M8.11314 6.64803L8.11614 6.64289L7.36231 5.94591L7.35995 5.95165L5.3016 4.04854L5.30698 4.0456L4.55324 3.3487L4.54849 3.35223L3.59212 2.46798L3.59758 2.46512L2.82804 1.75362L2.82284 1.75672L0.922819 0L0.261415 0.73994L1.99053 2.33865C1.11019 3.04851 0.451666 3.89605 0 4.59553L0.821864 5.14446C1.27153 4.44809 1.90339 3.65359 2.72919 3.0216L3.88694 4.09203C3.66782 4.466 3.54195 4.90305 3.54195 5.37C3.54195 6.75071 4.64248 7.87 6.00006 7.87C6.54299 7.87 7.04481 7.69098 7.45157 7.38781L8.40789 8.27201C7.71224 8.63683 6.91114 8.87 6 8.87C3.43756 8.87 1.74541 7.02579 0.821864 5.59553L0 6.14446C0.978477 7.65979 2.92776 9.87 6 9.87C7.23811 9.87 8.29385 9.51104 9.17716 8.98326L11.0771 10.7399L11.7385 10L10.0095 8.40134L10.014 8.39765L9.27549 7.71481L9.27081 7.71839L8.11314 6.64803ZM4.64014 4.78843L6.69845 6.6915C6.49057 6.80537 6.25274 6.87 6.00006 6.87C5.18552 6.87 4.52519 6.19842 4.52519 5.37C4.52519 5.16377 4.56611 4.96727 4.64014 4.78843ZM12 6.14446C11.6852 6.63194 11.27 7.19133 10.7492 7.72591L10.0214 7.05303C10.4916 6.5756 10.876 6.06342 11.1781 5.59553L12 6.14446ZM8.44807 5.59832C8.45476 5.52312 8.45818 5.44697 8.45818 5.37C8.45818 3.98928 7.35764 2.87 6.00006 2.87C5.84412 2.87 5.69158 2.88476 5.5437 2.913L8.44807 5.59832ZM6 1.87C5.50782 1.87 5.04775 1.93803 4.61907 2.0581L3.78278 1.28489C4.44423 1.02655 5.18234 0.869995 6 0.869995C9.07224 0.869995 11.0215 3.0802 12 4.59553L11.1781 5.14446C10.2546 3.7142 8.56244 1.87 6 1.87Z" fill="#2E2F32"/>
</svg>
