<svg width="14" height="13" viewBox="0 0 14 13" fill="none" xmlns="http://www.w3.org/2000/svg">
<path fill-rule="evenodd" clip-rule="evenodd" d="M6.33106 0.256685C6.71136 -0.0855624 7.28864 -0.0855611 7.66894 0.256685L10.6919 2.97714H12C13.1046 2.97714 14 3.87257 14 4.97714V10.9771C14 12.0817 13.1046 12.9771 12 12.9771H8V8.97714H6V12.9771H2C0.89543 12.9771 0 12.0817 0 10.9771V4.97714C0 3.87257 0.895431 2.97714 2 2.97714H3.30814L6.33106 0.256685ZM7 1L3.69186 3.97714H2C1.44772 3.97714 1 4.42486 1 4.97714V10.9771C1 11.5294 1.44772 11.9771 2 11.9771H5V7.97714H9V11.9771H12C12.5523 11.9771 13 11.5294 13 10.9771V4.97714C13 4.42486 12.5523 3.97714 12 3.97714H10.3081L7 1Z" fill="#2E2F32"/>
</svg>
