<svg width="12" height="14" viewBox="0 0 12 14" fill="none" xmlns="http://www.w3.org/2000/svg">
<path fill-rule="evenodd" clip-rule="evenodd" d="M11.2236 0.497227L11.5 0.635423V9.18295L10.8143 8.90868L10.8124 8.90795L10.7965 8.90193C10.7813 8.89627 10.7571 8.88745 10.7244 8.87618C10.6589 8.85364 10.5596 8.82137 10.4308 8.78509C10.1729 8.71244 9.79861 8.62422 9.34227 8.56534C8.42731 8.44728 7.1999 8.44924 5.92087 8.91434C4.4499 9.44923 3.05231 9.44727 2.02977 9.31533C1.62433 9.26301 1.27513 9.18994 1 9.12029V13.9444H0V0.135442L0.721835 0.496354L0.731641 0.500935C0.741828 0.505605 0.759451 0.513471 0.784328 0.52382C0.834092 0.544522 0.912815 0.575129 1.01905 0.609961C1.23155 0.679629 1.55383 0.766105 1.97457 0.824136C2.81421 0.939946 4.05282 0.943517 5.60296 0.466551C7.30282 -0.0564829 8.68921 -0.0600576 9.66207 0.0741297C10.1476 0.141097 10.5284 0.24212 10.7925 0.328701C10.9245 0.371993 11.0275 0.411698 11.0998 0.441777C11.1359 0.456819 11.1644 0.46946 11.1851 0.47895L11.2103 0.49073L11.2184 0.494674L11.2214 0.496128L11.2226 0.496723L11.2236 0.497227Z" fill="#2E2F32"/>
</svg>
