<svg width="13" height="14" viewBox="0 0 13 14" fill="none" xmlns="http://www.w3.org/2000/svg">
<path fill-rule="evenodd" clip-rule="evenodd" d="M4.86312 0.251931C4.95214 0.096143 5.11781 0 5.29724 0H9.29724C9.4744 0 9.63833 0.0937472 9.72818 0.246436C9.81802 0.399125 9.82036 0.587956 9.73432 0.742821L7.647 4.5H11.2972C11.4907 4.5 11.6668 4.61163 11.7494 4.78661C11.832 4.96158 11.8062 5.1685 11.6832 5.31785L9.93321 7.44285L9.16128 6.80715L10.2377 5.5H6.79724C6.62008 5.5 6.45615 5.40625 6.36631 5.25356C6.27646 5.10087 6.27413 4.91204 6.36016 4.75718L8.44748 1H5.5874L4.23136 3.37307L3.36312 2.87693L4.86312 0.251931ZM2.98136 5.56057L2.15883 7H6.22072L0 2.40208L0.594391 1.5979L12.0944 10.0979L11.5 10.9021L7.2349 7.74961L6.05696 10.5767L7.41128 8.93215L8.18321 9.56785L4.68321 13.8179C4.52565 14.0092 4.25172 14.0562 4.03938 13.9284C3.82704 13.8006 3.74038 13.5365 3.8357 13.3077L6.04724 8H1.29724C1.11901 8 0.954247 7.90512 0.864786 7.75096C0.775325 7.59681 0.77469 7.40668 0.86312 7.25193L2.11312 5.06443L2.98136 5.56057Z" fill="#2E2F32"/>
</svg>
