<svg width="11" height="14" viewBox="0 0 11 14" fill="none" xmlns="http://www.w3.org/2000/svg">
<path fill-rule="evenodd" clip-rule="evenodd" d="M4.5 0C4.32057 0 4.1549 0.096143 4.06588 0.251931L0.0658784 7.25193C-0.022551 7.40668 -0.021916 7.59681 0.067545 7.75096C0.157006 7.90512 0.321765 8 0.5 8H5.25L3.03846 13.3077C2.94314 13.5365 3.02979 13.8006 3.24214 13.9284C3.45448 14.0562 3.72841 14.0092 3.88597 13.8179L10.886 5.31785C11.009 5.1685 11.0348 4.96158 10.9522 4.78661C10.8696 4.61163 10.6935 4.5 10.5 4.5H6.84976L8.93708 0.742821C9.02312 0.587956 9.02078 0.399125 8.93094 0.246436C8.84109 0.0937472 8.67716 0 8.5 0H4.5ZM1.36159 7L4.79016 1H7.65024L5.56292 4.75718C5.47688 4.91204 5.47922 5.10087 5.56906 5.25356C5.65891 5.40625 5.82284 5.5 6 5.5H9.44051L5.25972 10.5767L6.46154 7.69231C6.52584 7.53799 6.50876 7.36175 6.41603 7.22265C6.32329 7.08355 6.16718 7 6 7H1.36159Z" fill="#2E2F32"/>
</svg>
