<svg width="14" height="14" viewBox="0 0 14 14" fill="none" xmlns="http://www.w3.org/2000/svg">
<path fill-rule="evenodd" clip-rule="evenodd" d="M8.6004 0.747227C8.48702 0.311798 8.09218 0 7.63281 0H5.71439L5.60102 0.00638692L5.49109 0.0251121C5.09524 0.115593 4.78399 0.441722 4.72444 0.858579L4.51481 2.322L4.32138 2.41746C4.20039 2.47968 4.08196 2.54666 3.96635 2.61822L3.70281 2.792L2.32963 2.2413L2.19873 2.19999L2.07337 2.18098C1.65924 2.14084 1.28691 2.33001 1.09103 2.6693L0.131818 4.3307L0.0724496 4.45437L0.0330307 4.5879L0.0104792 4.72069C-0.0275901 5.07274 0.109201 5.40444 0.380394 5.61731L1.54481 6.531L1.52985 6.74424L1.52516 6.87192L1.5236 7L1.52985 7.25576L1.54481 7.468L0.380296 8.38277L0.279233 8.47534L0.192908 8.58459C-0.0421602 8.92132 -0.0621106 9.33341 0.131818 9.6693L1.09103 11.3307L1.16844 11.4439L1.26438 11.5449L1.3681 11.6308C1.65395 11.8398 2.0096 11.8872 2.32955 11.7587L3.70281 11.207L3.88018 11.3272C3.99436 11.4011 4.11143 11.4704 4.23112 11.535L4.51481 11.677L4.72447 13.1416L4.7541 13.2754L4.80032 13.3934C4.97262 13.7721 5.32262 14 5.71439 14H7.63281L7.76959 13.9896L7.89301 13.9605L8.02137 13.9144C8.3507 13.7728 8.57351 13.4862 8.62276 13.1414L8.83081 11.676L9.02514 11.5829C9.14612 11.5207 9.26454 11.4537 9.38014 11.3822L9.64281 11.207L11.0178 11.7588L11.1344 11.7975C11.5655 11.912 12.0281 11.7258 12.2562 11.3307L13.2154 9.6693L13.2702 9.55932L13.3106 9.44569C13.421 9.06223 13.293 8.63875 12.9668 8.38269L11.8008 7.467L11.8173 7.25576L11.822 7.12808L11.8236 7L11.8173 6.74424L11.8008 6.532L12.9669 5.61723L13.0588 5.53562C13.3735 5.21946 13.4435 4.72576 13.2154 4.3307L12.2562 2.6693L12.1884 2.5668L12.1101 2.47508C11.8332 2.18773 11.4025 2.08679 11.0176 2.24127L9.64281 2.792L9.46851 2.67395C9.35213 2.59848 9.23507 2.5292 9.11539 2.46465L8.83081 2.323L8.62276 0.858551L8.6004 0.747227ZM5.71437 1.00018L7.63281 1L7.88185 2.74256L7.90216 2.82901C7.9483 2.96839 8.0542 3.08214 8.1936 3.13704C8.57685 3.28798 8.93521 3.49555 9.25729 3.75215C9.39798 3.86423 9.58803 3.89211 9.75498 3.82515L11.3901 3.1693L12.3494 4.8307L10.9642 5.91853L10.8996 5.97927C10.8021 6.08879 10.7565 6.23713 10.7784 6.38514C10.8084 6.58732 10.8236 6.79262 10.8236 7C10.8236 7.20738 10.8084 7.41268 10.7784 7.61486C10.7521 7.79247 10.823 7.97057 10.9642 8.08146L12.3494 9.1693L11.3901 10.8307L9.75498 10.1749L9.66991 10.1492C9.52605 10.1195 9.37453 10.1544 9.25729 10.2479C8.93521 10.5044 8.57685 10.712 8.1936 10.863C8.02632 10.9288 7.90728 11.0795 7.88185 11.2574L7.63314 13L7.58729 13.0021L5.71444 13.0003L5.7059 12.9552L5.46476 11.2571L5.44444 11.1707C5.39828 11.0313 5.29243 10.9177 5.15309 10.8628C4.7698 10.7117 4.41141 10.5041 4.08932 10.2474C3.94857 10.1352 3.75839 10.1073 3.59137 10.1744L1.95722 10.831L1.9325 10.7923L0.997586 9.16951L1.03237 9.13956L2.383 8.08146L2.44762 8.02073C2.54515 7.91121 2.59073 7.76287 2.56877 7.61486C2.53877 7.41268 2.5236 7.20738 2.5236 7C2.5236 6.79262 2.53877 6.58732 2.56877 6.38514C2.59512 6.20753 2.52421 6.02943 2.383 5.91853L0.997586 4.83099L1.0188 4.79024L1.95681 3.169L2.00007 3.18433L3.59137 3.82559L3.67648 3.85127C3.82041 3.88103 3.97203 3.8461 4.08932 3.75262C4.41141 3.49592 4.7698 3.28826 5.15309 3.13724C5.32029 3.07137 5.43928 2.92083 5.46476 2.74294L5.71437 1.00018ZM9.1736 7C9.1736 5.61929 8.05431 4.5 6.6736 4.5C5.29289 4.5 4.1736 5.61929 4.1736 7C4.1736 8.38071 5.29289 9.5 6.6736 9.5C8.05431 9.5 9.1736 8.38071 9.1736 7ZM5.1736 7C5.1736 6.17157 5.84517 5.5 6.6736 5.5C7.50203 5.5 8.1736 6.17157 8.1736 7C8.1736 7.82843 7.50203 8.5 6.6736 8.5C5.84517 8.5 5.1736 7.82843 5.1736 7Z" fill="#2E2F32"/>
</svg>
