<svg width="13" height="14" viewBox="0 0 13 14" fill="none" xmlns="http://www.w3.org/2000/svg">
<path fill-rule="evenodd" clip-rule="evenodd" d="M2.15662 2.86812C2.22209 3.09726 2.32171 3.30951 2.449 3.5H1C0.447715 3.5 0 3.94772 0 4.5V7C0 7.55229 0.447716 8 1 8H6V12.5H2C1.72386 12.5 1.5 12.2761 1.5 12V9H0.5V12C0.5 12.8284 1.17157 13.5 2 13.5H11C11.8284 13.5 12.5 12.8284 12.5 12V9H11.5V12C11.5 12.2761 11.2761 12.5 11 12.5H7V8H12C12.5523 8 13 7.55228 13 7V4.5C13 3.94772 12.5523 3.5 12 3.5H10.551C10.6783 3.30951 10.7779 3.09726 10.8434 2.86812L10.8679 2.78229C11.2663 1.38797 10.2193 0 8.76921 0C7.79469 0 6.93825 0.646021 6.67053 1.58304L6.5 2.17989L6.32947 1.58304C6.06175 0.646021 5.20531 0 4.23079 0C2.78067 0 1.73372 1.38797 2.1321 2.78229L2.15662 2.86812ZM7.63205 1.85776C7.77711 1.35004 8.24118 1 8.76921 1C9.55495 1 10.1222 1.75206 9.90638 2.50757L9.88185 2.5934C9.72853 3.13003 9.23805 3.5 8.67995 3.5H7.16284L7.63205 1.85776ZM5.36795 1.85776L5.83716 3.5H4.32005C3.76195 3.5 3.27147 3.13003 3.11815 2.5934L3.09362 2.50757C2.87777 1.75206 3.44505 1 4.23079 1C4.75882 1 5.22289 1.35004 5.36795 1.85776ZM1 7V4.5H6V7H1ZM7 7V4.5H12V7H7Z" fill="#2E2F32"/>
</svg>
