<svg width="14" height="14" viewBox="0 0 14 14" fill="none" xmlns="http://www.w3.org/2000/svg">
<path fill-rule="evenodd" clip-rule="evenodd" d="M14 7C14 3.13401 10.866 0 7 0C3.13401 0 0 3.13401 0 7C0 10.866 3.13401 14 7 14C10.866 14 14 10.866 14 7ZM8.58045 11.5025C8.00022 12.663 7.38367 13 7 13C6.61633 13 5.99978 12.663 5.41955 11.5025C5.20401 11.0714 5.01625 10.5652 4.86757 10H9.13243C8.98375 10.5652 8.79599 11.0714 8.58045 11.5025ZM9.3431 9H4.6569C4.55601 8.37743 4.5 7.70547 4.5 7C4.5 6.29453 4.55601 5.62257 4.6569 5H9.3431C9.44399 5.62257 9.5 6.29453 9.5 7C9.5 7.70547 9.44399 8.37743 9.3431 9ZM9.0806 12.6294C9.54109 11.9476 9.91496 11.045 10.1632 10H12.1973C11.5016 11.2027 10.4004 12.1415 9.0806 12.6294ZM13 7C13 7.70127 12.8797 8.37444 12.6586 9H10.3551C10.4494 8.36629 10.5 7.69497 10.5 7C10.5 6.30503 10.4494 5.63371 10.3551 5H12.6586C12.8797 5.62556 13 6.29873 13 7ZM3.5 7C3.5 7.69497 3.55064 8.36629 3.64494 9H1.34141C1.12031 8.37444 1 7.70127 1 7C1 6.29873 1.12031 5.62556 1.34141 5H3.64494C3.55064 5.63371 3.5 6.30503 3.5 7ZM4.9194 12.6294C3.59963 12.1415 2.49842 11.2027 1.80269 10H3.83682C4.08504 11.045 4.45891 11.9476 4.9194 12.6294ZM9.13243 4H4.86757C5.01625 3.43478 5.20401 2.92855 5.41955 2.49747C5.99978 1.33702 6.61633 1 7 1C7.38367 1 8.00022 1.33702 8.58045 2.49747C8.79599 2.92855 8.98375 3.43478 9.13243 4ZM12.1973 4H10.1632C9.91496 2.95496 9.54109 2.05245 9.0806 1.37055C10.4004 1.8585 11.5016 2.7973 12.1973 4ZM1.80269 4C2.49842 2.7973 3.59963 1.8585 4.9194 1.37055C4.45891 2.05245 4.08504 2.95496 3.83682 4H1.80269Z" fill="#2E2F32"/>
</svg>
