<svg width="14" height="14" viewBox="0 0 14 14" fill="none" xmlns="http://www.w3.org/2000/svg">
<path fill-rule="evenodd" clip-rule="evenodd" d="M5 1H1V5H5V1ZM0 0.5C0 0.223858 0.223858 0 0.5 0H5.5C5.77614 0 6 0.223858 6 0.5V5.5C6 5.77614 5.77614 6 5.5 6H0.5C0.223858 6 0 5.77614 0 5.5V0.5ZM9 5V1H13V5H9ZM13.5 0H8.5C8.22386 0 8 0.223858 8 0.5V5.5C8 5.77614 8.22386 6 8.5 6H13.5C13.7761 6 14 5.77614 14 5.5V0.5C14 0.223858 13.7761 0 13.5 0ZM1 9V13H5V9H1ZM0.5 8H5.5C5.77614 8 6 8.22386 6 8.5V13.5C6 13.7761 5.77614 14 5.5 14H0.5C0.223858 14 0 13.7761 0 13.5V8.5C0 8.22386 0.223858 8 0.5 8ZM9 13V9H13V13H9ZM13.5 8H8.5C8.22386 8 8 8.22386 8 8.5V13.5C8 13.7761 8.22386 14 8.5 14H13.5C13.7761 14 14 13.7761 14 13.5V8.5C14 8.22386 13.7761 8 13.5 8Z" fill="#2E2F32"/>
</svg>
