<svg width="14" height="12" viewBox="0 0 14 12" fill="none" xmlns="http://www.w3.org/2000/svg">
<path fill-rule="evenodd" clip-rule="evenodd" d="M7.00001 1.12503C7.76552 0.408038 8.76771 0.00679997 9.81001 0V0.0202675C10.9204 0.0229441 11.9847 0.47123 12.7699 1.26707C13.5551 2.06291 13.9974 3.14154 14 4.26703V4.34811C14 5.9191 13.08 7.59146 11.26 9.26381C10.1757 10.2364 8.99242 11.0892 7.73001 11.8078C7.5068 11.9338 7.25552 12 7.00001 12C6.7445 12 6.49322 11.9338 6.27001 11.8078C5.00761 11.0892 3.82428 10.2364 2.74002 9.26381C0.920022 7.59146 2.54162e-05 5.93938 2.54162e-05 4.34811V4.26703C-0.00280555 3.44405 0.230914 2.63805 0.672639 1.9475C1.11436 1.25695 1.74497 0.71175 2.4874 0.378502C3.22984 0.0452548 4.05196 -0.0616105 4.85334 0.0709634C5.65472 0.203537 6.40066 0.569806 7.00001 1.12503Z" fill="#2E2F32"/>
</svg>
