<svg width="14" height="12" viewBox="0 0 14 12" fill="none" xmlns="http://www.w3.org/2000/svg">
<path fill-rule="evenodd" clip-rule="evenodd" d="M12.0657 1.9808C11.4674 1.37445 10.656 1.03381 9.81001 1.03381V1.01355C9.01361 1.01538 8.2467 1.31906 7.66001 1.86492L7.37001 2.13858C7.26777 2.22979 7.13622 2.28012 7.00001 2.28012C6.8638 2.28012 6.73226 2.22979 6.63001 2.13858L6.34001 1.86492C5.88385 1.43695 5.31395 1.15386 4.70075 1.05065C4.08756 0.94744 3.45796 1.02864 2.88981 1.28422C2.32165 1.53979 1.83986 1.95852 1.504 2.48865C1.16813 3.01878 0.992917 3.63706 1.00002 4.26703V4.34811C1.00002 5.80761 2.06003 7.26712 3.41002 8.51378C4.43975 9.43521 5.56264 10.2438 6.76002 10.926C6.83388 10.966 6.9163 10.9868 7.00001 10.9868C7.08372 10.9868 7.16615 10.966 7.24001 10.926C8.43738 10.2438 9.56028 9.43521 10.59 8.51378C11.94 7.26712 13 5.80761 13 4.34811V4.26703C13 3.40953 12.6639 2.58714 12.0657 1.9808ZM7.00001 1.12503C7.76552 0.408038 8.76771 0.00679997 9.81001 0V0.0202675C10.9204 0.0229441 11.9847 0.47123 12.7699 1.26707C13.5551 2.06291 13.9974 3.14154 14 4.26703V4.34811C14 5.9191 13.08 7.59146 11.26 9.26381C10.1757 10.2364 8.99242 11.0892 7.73001 11.8078C7.5068 11.9338 7.25552 12 7.00001 12C6.7445 12 6.49322 11.9338 6.27001 11.8078C5.00761 11.0892 3.82428 10.2364 2.74002 9.26381C0.920022 7.59146 2.54161e-05 5.93938 2.54161e-05 4.34811V4.26703C-0.00280555 3.44405 0.230914 2.63805 0.672639 1.9475C1.11436 1.25695 1.74497 0.71175 2.4874 0.378502C3.22984 0.0452547 4.05196 -0.0616105 4.85334 0.0709634C5.65472 0.203537 6.40066 0.569806 7.00001 1.12503Z" fill="#2E2F32"/>
</svg>
