<svg width="14" height="14" viewBox="0 0 14 14" fill="none" xmlns="http://www.w3.org/2000/svg">
<path fill-rule="evenodd" clip-rule="evenodd" d="M13 7C13 10.3137 10.3137 13 7.00003 13C3.68634 13 1.00007 10.3137 1.00003 7.00007L3.03984e-05 7C3.02294e-05 10.866 3.13404 14 7.00003 14C10.866 14 14 10.866 14 7C14 3.13401 10.866 0 7.00003 0C4.45369 0 2.2249 1.3596 1.00001 3.39245L1.00003 1.49902L3.0729e-05 1.49901L0 4.38283C0 4.51544 0.0526773 4.64262 0.146447 4.73639C0.240216 4.83016 0.367395 4.88284 0.500005 4.88284L3.50004 4.88281L3.50003 3.88281L1.8723 3.88282C2.92536 2.15424 4.8279 1 7.00003 1C10.3137 1 13 3.68629 13 7ZM6.05862 3H7.05862V7.1703L10.2556 8.54043L9.86166 9.45957L6.05862 7.8297V3Z" fill="#2E2F32"/>
</svg>
