<svg width="14" height="15" viewBox="0 0 14 15" fill="none" xmlns="http://www.w3.org/2000/svg">
<path fill-rule="evenodd" clip-rule="evenodd" d="M6.18949 0.216199C6.55332 -0.0720668 7.06769 -0.0720657 7.43152 0.216199L13.621 5.12018L13 5.90398L6.81051 1L0.621012 5.90398L0 5.12018L6.18949 0.216199ZM0.810547 7.01208V13.0121C0.810547 13.5644 1.25826 14.0121 1.81055 14.0121H5.81055V10.5121C5.81055 9.9598 6.25826 9.51208 6.81055 9.51208C7.36283 9.51208 7.81055 9.9598 7.81055 10.5121V14.0121H11.8105C12.3628 14.0121 12.8105 13.5644 12.8105 13.0121V7.01208H11.8105V13.0121H8.81055V10.5121C8.81055 9.40752 7.91512 8.51208 6.81055 8.51208C5.70598 8.51208 4.81055 9.40752 4.81055 10.5121V13.0121H1.81055V7.01208H0.810547Z" fill="#2E2F32"/>
</svg>
