<svg width="14" height="11" viewBox="0 0 14 11" fill="none" xmlns="http://www.w3.org/2000/svg">
<path fill-rule="evenodd" clip-rule="evenodd" d="M0 1C0 0.447715 0.447715 0 1 0H13C13.5523 0 14 0.447715 14 1V10C14 10.5523 13.5523 11 13 11H1C0.447716 11 0 10.5523 0 10V1ZM13 10V1H1V10H13ZM7 4.49268C7 5.20331 6.62937 5.82738 6.07087 6.18213C7.1989 6.61331 8 7.70577 8 8.98535H7C7 7.88078 6.10457 6.98535 5 6.98535C3.89543 6.98535 3 7.88078 3 8.98535H2C2 7.70577 2.8011 6.61331 3.92913 6.18213C3.37063 5.82738 3 5.20331 3 4.49268C3 3.38811 3.89543 2.49268 5 2.49268C6.10457 2.49268 7 3.38811 7 4.49268ZM4 4.49268C4 5.04496 4.44772 5.49268 5 5.49268C5.55228 5.49268 6 5.04496 6 4.49268C6 3.94039 5.55228 3.49268 5 3.49268C4.44772 3.49268 4 3.94039 4 4.49268ZM8.5 4H11.5V3H8.5V4ZM8.5 6H10.5V5H8.5V6Z" fill="#2E2F32"/>
</svg>
