<svg width="14" height="14" viewBox="0 0 14 14" fill="none" xmlns="http://www.w3.org/2000/svg">
<path fill-rule="evenodd" clip-rule="evenodd" d="M1.5 1C1.22386 1 1 1.22386 1 1.5V7H0V1.5C0 0.671573 0.671573 0 1.5 0H12.5C13.3284 0 14 0.671573 14 1.5V7H13V1.5C13 1.22386 12.7761 1 12.5 1H1.5ZM9.6746 6.12037C9.86185 5.95988 10.1382 5.95988 10.3254 6.12037L13.8254 9.12037C13.9362 9.21536 14 9.35404 14 9.5V12.5C14 13.3284 13.3284 14 12.5 14H1.5C0.671573 14 0 13.3284 0 12.5V10.5C0 10.3516 0.0659115 10.2109 0.179908 10.1159L3.17991 7.61589C3.33251 7.48872 3.54593 7.46395 3.72361 7.55279L6.42667 8.90432L9.6746 6.12037ZM10 7.15854L6.8254 9.87963C6.67265 10.0105 6.45633 10.0372 6.27639 9.94721L3.56888 8.59346L1 10.7342V12.5C1 12.7761 1.22386 13 1.5 13H12.5C12.7761 13 13 12.7761 13 12.5V9.72997L10 7.15854ZM4 6C5.10457 6 6 5.10457 6 4C6 2.89543 5.10457 2 4 2C2.89543 2 2 2.89543 2 4C2 5.10457 2.89543 6 4 6ZM4 3C4.55228 3 5 3.44772 5 4C5 4.55228 4.55228 5 4 5C3.44772 5 3 4.55228 3 4C3 3.44772 3.44772 3 4 3Z" fill="#2E2F32"/>
</svg>
