<svg width="14" height="10" viewBox="0 0 14 10" fill="none" xmlns="http://www.w3.org/2000/svg">
<path fill-rule="evenodd" clip-rule="evenodd" d="M0 1.5C0 0.671573 0.671573 0 1.5 0H12.5C13.3284 0 14 0.671573 14 1.5V8.5C14 9.32843 13.3284 10 12.5 10H1.5C0.671573 10 0 9.32843 0 8.5V1.5ZM1.5 1C1.22386 1 1 1.22386 1 1.5V8.5C1 8.77614 1.22386 9 1.5 9H12.5C12.7761 9 13 8.77614 13 8.5V1.5C13 1.22386 12.7761 1 12.5 1H1.5ZM2.5 3.5H3.5V2.5H2.5V3.5ZM2.5 5.5H3.5V4.5H2.5V5.5ZM11.5 7.5H2.5V6.5H11.5V7.5ZM4.5 5.5H5.5V4.5H4.5V5.5ZM6.5 5.5H7.5V4.5H6.5V5.5ZM8.5 5.5H9.5V4.5H8.5V5.5ZM10.5 5.5H11.5V4.5H10.5V5.5ZM4.5 3.5H5.5V2.5H4.5V3.5ZM6.5 3.5H7.5V2.5H6.5V3.5ZM8.5 3.5H9.5V2.5H8.5V3.5ZM10.5 3.5H11.5V2.5H10.5V3.5Z" fill="#2E2F32"/>
</svg>
