<svg width="12" height="14" viewBox="0 0 12 14" fill="none" xmlns="http://www.w3.org/2000/svg">
<path fill-rule="evenodd" clip-rule="evenodd" d="M2.5009 2.38129C1.56347 3.28685 1.02367 4.52738 1 5.83055C1.15691 7.3715 1.83823 8.81182 2.92999 9.91055C3.85457 10.9585 4.85746 11.9346 5.92999 12.8306L6 12.8906L6.07001 12.8306C7.14254 11.9346 8.14543 10.9585 9.07001 9.91055C10.1618 8.81182 10.8431 7.3715 11 5.83055C10.9763 4.52738 10.4365 3.28685 9.4991 2.38129C8.56167 1.47573 7.30321 0.979142 6 1.00055C4.69679 0.979142 3.43833 1.47573 2.5009 2.38129ZM1.79384 1.67421C2.9188 0.581123 4.43158 -0.0208254 6 0.000550454C7.56842 -0.0208254 9.0812 0.581123 10.2062 1.67421C11.3311 2.7673 11.9763 4.26217 12 5.83055C12 8.88872 8.74258 11.7887 6.92354 13.4081C6.85703 13.4673 6.79243 13.5248 6.73 13.5806L6.44 13.8406C6.31605 13.9428 6.16068 13.9993 6 14.0006C5.83932 13.9993 5.68395 13.9428 5.56 13.8406L5.27 13.5806L5.24486 13.5587C3.46709 12.012 0 8.99556 0 5.83055C0.0237007 4.26217 0.668876 2.7673 1.79384 1.67421ZM4.93935 4.93989C4.65804 5.22119 4.5 5.60273 4.5 6.00055C4.5 6.39838 4.65804 6.77991 4.93935 7.06121C5.22065 7.34251 5.60218 7.50055 6 7.50055C6.39782 7.50055 6.77935 7.34251 7.06065 7.06121C7.34196 6.77991 7.5 6.39838 7.5 6.00055H8.5C8.5 6.66359 8.2366 7.29948 7.76776 7.76832C7.29892 8.23716 6.66304 8.50055 6 8.50055C5.33696 8.50055 4.70108 8.23716 4.23224 7.76832C3.7634 7.29948 3.5 6.66359 3.5 6.00055C3.5 5.33751 3.7634 4.70162 4.23224 4.23278C4.70108 3.76394 5.33696 3.50055 6 3.50055V4.50055C5.60218 4.50055 5.22065 4.65859 4.93935 4.93989Z" fill="#2E2F32"/>
</svg>
