<svg width="12" height="14" viewBox="0 0 12 14" fill="none" xmlns="http://www.w3.org/2000/svg">
<path fill-rule="evenodd" clip-rule="evenodd" d="M2.5 5V3.5C2.5 1.567 4.067 0 6 0C7.933 0 9.5 1.567 9.5 3.5V5H10.5C11.3284 5 12 5.67157 12 6.5V12.5C12 13.3284 11.3284 14 10.5 14H1.5C0.671572 14 0 13.3284 0 12.5V6.5C0 5.67157 0.671573 5 1.5 5H2.5ZM8.5 3.5C8.5 2.11929 7.38071 1 6 1C4.61929 1 3.5 2.11929 3.5 3.5V5H8.5V3.5ZM11 6.5C11 6.22386 10.7761 6 10.5 6H1.5C1.22386 6 1 6.22386 1 6.5V12.5C1 12.7761 1.22386 13 1.5 13H10.5C10.7761 13 11 12.7761 11 12.5V6.5ZM5.5 11V8H6.5V11H5.5Z" fill="#2E2F32"/>
</svg>
