<svg width="12" height="14" viewBox="0 0 12 14" fill="none" xmlns="http://www.w3.org/2000/svg">
<path fill-rule="evenodd" clip-rule="evenodd" d="M2.5 3.5V5H1.5C0.671573 5 0 5.67157 0 6.5V12.5C0 13.3284 0.671572 14 1.5 14H10.5C11.3284 14 12 13.3284 12 12.5V6.5C12 5.67157 11.3284 5 10.5 5H3.5V3.5C3.5 2.11929 4.61929 1 6 1C7.20948 1 8.21836 1.85888 8.44999 3H9.46456C9.22194 1.30385 7.76324 0 6 0C4.067 0 2.5 1.567 2.5 3.5ZM10.5 6C10.7761 6 11 6.22386 11 6.5V12.5C11 12.7761 10.7761 13 10.5 13H1.5C1.22386 13 1 12.7761 1 12.5V6.5C1 6.22386 1.22386 6 1.5 6H10.5ZM5.5 8V11H6.5V8H5.5Z" fill="#2E2F32"/>
</svg>
