<svg width="13" height="14" viewBox="0 0 13 14" fill="none" xmlns="http://www.w3.org/2000/svg">
<path fill-rule="evenodd" clip-rule="evenodd" d="M6.27734 0C4.89663 0 3.77734 1.11929 3.77734 2.5V3.73241L4.77734 4.39908V2.5C4.77734 1.67157 5.44892 1 6.27734 1C7.10577 1 7.77734 1.67157 7.77734 2.5V6.39908L8.77651 7.06519C8.77707 7.04353 8.77734 7.0218 8.77734 7V2.5C8.77734 1.11929 7.65806 0 6.27734 0ZM3.77734 4.93554V4.93426L4.77734 5.60093V5.6022L7.6786 7.53638L7.67899 7.53536L8.5237 8.0985L8.52323 8.09946L9.36063 8.65773L9.36114 8.65679L10.1962 9.21351L10.1957 9.21443L12.5547 10.7871L12 11.6192L9.60888 10.0251C8.89104 10.8152 7.89598 11.3489 6.77734 11.4725V13H8.77734V14H3.77734V13H5.77734V11.4725C3.52737 11.2238 1.77734 9.31628 1.77734 7H2.77734C2.77734 8.933 4.34435 10.5 6.27734 10.5C7.25022 10.5 8.13038 10.1031 8.76472 9.46231L7.91054 8.89285C7.47244 9.27119 6.90161 9.5 6.27734 9.5C4.89663 9.5 3.77734 8.38071 3.77734 7V6.13739L0 3.61916L0.5547 2.78711L3.77734 4.93554ZM4.77734 6.80406V7C4.77734 7.82843 5.44892 8.5 6.27734 8.5C6.54899 8.5 6.80377 8.42779 7.02354 8.30152L4.77734 6.80406ZM10.7773 7C10.7773 7.44345 10.7132 7.87192 10.5937 8.27664L9.70986 7.68742C9.75413 7.46515 9.77734 7.23529 9.77734 7H10.7773Z" fill="#2E2F32"/>
</svg>
