<svg width="9" height="14" viewBox="0 0 9 14" fill="none" xmlns="http://www.w3.org/2000/svg">
<path fill-rule="evenodd" clip-rule="evenodd" d="M2 2.5C2 1.11929 3.11929 0 4.5 0C5.88071 0 7 1.11929 7 2.5V7C7 8.38071 5.88071 9.5 4.5 9.5C3.11929 9.5 2 8.38071 2 7V2.5ZM4.5 1C3.67157 1 3 1.67157 3 2.5V7C3 7.82843 3.67157 8.5 4.5 8.5C5.32843 8.5 6 7.82843 6 7V2.5C6 1.67157 5.32843 1 4.5 1ZM2 14V13H4V11.4725C1.75002 11.2238 0 9.31628 0 7H1C1 8.933 2.567 10.5 4.5 10.5C6.433 10.5 8 8.933 8 7H9C9 9.31628 7.24998 11.2238 5 11.4725V13H7V14H2Z" fill="#2E2F32"/>
</svg>
