<svg width="11" height="2" viewBox="0 0 11 2" fill="none" xmlns="http://www.w3.org/2000/svg">
<path fill-rule="evenodd" clip-rule="evenodd" d="M6.5 1C6.5 0.447715 6.05228 0 5.5 0C4.94772 0 4.5 0.447715 4.5 1C4.5 1.55228 4.94772 2 5.5 2C6.05228 2 6.5 1.55228 6.5 1ZM2 1C2 0.447715 1.55228 0 1 0C0.447715 0 0 0.447715 0 1C0 1.55228 0.447715 2 1 2C1.55228 2 2 1.55228 2 1ZM11 1C11 0.447715 10.5523 0 10 0C9.44771 0 9 0.447715 9 1C9 1.55228 9.44771 2 10 2C10.5523 2 11 1.55228 11 1Z" fill="#2E2F32"/>
</svg>
