<svg width="14" height="14" viewBox="0 0 14 14" fill="none" xmlns="http://www.w3.org/2000/svg">
<path fill-rule="evenodd" clip-rule="evenodd" d="M0 1C0 0.447715 0.447715 0 1 0H8V1H1V9H4.5C4.77614 9 5 9.22386 5 9.5V13H13V6H14V13C14 13.5523 13.5523 14 13 14H4.70711C4.44189 14 4.18754 13.8946 4 13.7071L0.292893 10C0.105356 9.81246 0 9.55811 0 9.29289V1ZM4 12.2929V10H1.70711L4 12.2929ZM11.8536 0.146447C11.6583 -0.0488155 11.3417 -0.0488155 11.1464 0.146447L6.14645 5.14645C6.05268 5.24021 6 5.36739 6 5.5V7.5C6 7.77614 6.22386 8 6.5 8H8.5C8.63261 8 8.75978 7.94732 8.85355 7.85355L13.8536 2.85355C14.0488 2.65829 14.0488 2.34171 13.8536 2.14645L11.8536 0.146447ZM7 7V5.70711L10 2.70708L11.2929 3.99997L8.29289 7H7ZM12 3.29286L10.7071 1.99997L11.5 1.20711L12.7929 2.5L12 3.29286ZM5 5H2V4H5V5ZM4 7H2V6H4V7ZM6 3H2V2H6V3Z" fill="#2E2F32"/>
</svg>
