<svg width="14" height="14" viewBox="0 0 14 14" fill="none" xmlns="http://www.w3.org/2000/svg">
<path fill-rule="evenodd" clip-rule="evenodd" d="M13.8535 3.4411L10.5589 0.146522C10.3636 -0.0488402 10.0468 -0.0488406 9.85145 0.146521L0.146521 9.85145C0.0527051 9.94527 0 10.0725 0 10.2052V13.4997C0 13.776 0.223971 14 0.500254 14H3.79482C3.9275 14 4.05474 13.9473 4.14855 13.8535L10.0764 7.92564L9.36893 7.21817L3.58761 12.9995H1.00051V10.4124L7.85756 3.55534L9.1736 4.87137L9.17458 4.87039L11.1531 6.84892L13.8535 4.14856C14.0488 3.9532 14.0488 3.63646 13.8535 3.4411ZM8.56503 2.84787L10.2052 1.20772L12.7923 3.79483L11.1521 5.43498L8.56503 2.84787Z" fill="#2E2F32"/>
</svg>
