<svg width="13" height="13" viewBox="0 0 13 13" fill="none" xmlns="http://www.w3.org/2000/svg">
<path fill-rule="evenodd" clip-rule="evenodd" d="M1.61059 0.63564L2.9242 0.109915C3.69567 -0.198839 4.57245 0.164531 4.89976 0.928659L5.80683 3.04631C6.09694 3.7236 5.86391 4.51158 5.25217 4.92188L4.41965 5.48012L4.49142 5.61778C4.78205 6.14818 5.11299 6.61854 5.48416 7.02966L5.71168 7.26924C6.24893 7.80678 6.88135 8.24842 7.61133 8.59485L7.41903 8.49812L7.94042 7.66788C8.32145 7.06023 9.06786 6.80374 9.73414 7.03313L9.86619 7.08553L12.0979 8.09199C12.8454 8.42908 13.1947 9.29552 12.8902 10.0572L12.3578 11.3887C11.915 12.4963 10.7671 13.1518 9.58879 12.97C7.25036 12.6093 5.15913 11.5062 3.32615 9.67221C1.49317 7.83824 0.390677 5.74589 0.0300985 3.4062C-0.1516 2.22722 0.5036 1.07868 1.61059 0.63564ZM4.88818 3.44023L3.98111 1.32258C3.8675 1.05735 3.56317 0.931223 3.29539 1.03839L1.98178 1.56412C1.30666 1.83431 0.907072 2.53478 1.01789 3.2538C1.34519 5.37761 2.34638 7.27769 4.03288 8.9651C5.71938 10.6525 7.61844 11.6542 9.7411 11.9817C10.4597 12.0926 11.1598 11.6928 11.4299 11.0173L11.9622 9.68577C12.0679 9.42141 11.9466 9.12066 11.6872 9.00366L9.45549 7.9972C9.21349 7.88806 8.92812 7.97436 8.78705 8.19933L8.14931 9.21638C7.94522 9.54185 7.53 9.66303 7.18302 9.49837C6.35109 9.10356 5.62427 8.59599 5.00496 7.97634C4.38369 7.35474 3.85754 6.60729 3.42628 5.73622C3.25753 5.39537 3.36744 4.98218 3.68326 4.77026L4.69566 4.09124C4.90799 3.94883 4.98888 3.67532 4.88818 3.44023Z" fill="#2E2F32"/>
</svg>
