<svg width="14" height="14" viewBox="0 0 14 14" fill="none" xmlns="http://www.w3.org/2000/svg">
<path fill-rule="evenodd" clip-rule="evenodd" d="M13 13V1H1V13H13ZM0 1V0H14V14H0V1ZM10.0119 1.998V4.42358L11.2179 3.162H11.7279L10.45 4.49879L11.7819 6H11.2419L10.0119 4.63086V6H9.54988V1.998H10.0119ZM8.91997 3.816V3.342C8.84797 3.286 8.74397 3.232 8.60797 3.18C8.47597 3.128 8.30397 3.102 8.09197 3.102C7.83197 3.102 7.58997 3.16 7.36597 3.276C7.14197 3.392 6.96397 3.56 6.83197 3.78C6.69997 4 6.63397 4.268 6.63397 4.584C6.63397 4.896 6.69997 5.162 6.83197 5.382C6.96397 5.602 7.14197 5.77 7.36597 5.886C7.58997 6.002 7.83197 6.06 8.09197 6.06C8.31597 6.06 8.49597 6.03 8.63197 5.97C8.76797 5.91 8.86397 5.854 8.91997 5.802V5.382C8.82797 5.462 8.71597 5.528 8.58397 5.58C8.45197 5.632 8.29597 5.658 8.11597 5.658C7.93197 5.658 7.76197 5.618 7.60597 5.538C7.44997 5.454 7.32597 5.334 7.23397 5.178C7.14197 5.018 7.09597 4.82 7.09597 4.584C7.09597 4.348 7.14197 4.15 7.23397 3.99C7.32597 3.83 7.44997 3.708 7.60597 3.624C7.76197 3.54 7.93197 3.498 8.11597 3.498C8.27597 3.498 8.42397 3.526 8.55997 3.582C8.69997 3.638 8.81997 3.716 8.91997 3.816ZM6.0395 6V3.162H5.5775V6H6.0395ZM5.8055 2.676C5.7175 2.676 5.6455 2.65 5.5895 2.598C5.5335 2.542 5.5055 2.472 5.5055 2.388C5.5055 2.308 5.5335 2.242 5.5895 2.19C5.6455 2.138 5.7175 2.112 5.8055 2.112C5.8935 2.112 5.9655 2.138 6.0215 2.19C6.0815 2.242 6.1115 2.308 6.1115 2.388C6.1115 2.472 6.0815 2.542 6.0215 2.598C5.9655 2.65 5.8935 2.676 5.8055 2.676ZM2.438 6V2.172H3.56C3.996 2.172 4.336 2.27 4.58 2.466C4.828 2.662 4.952 2.954 4.952 3.342C4.952 3.718 4.828 4.01 4.58 4.218C4.336 4.426 3.996 4.53 3.56 4.53H2.924V6H2.438ZM3.518 2.58H2.924V4.128H3.518C3.862 4.128 4.106 4.06 4.25 3.924C4.394 3.784 4.466 3.594 4.466 3.354C4.466 3.106 4.394 2.916 4.25 2.784C4.106 2.648 3.862 2.58 3.518 2.58ZM9.87209 9.25C9.86145 9.27483 9.85145 9.29992 9.84209 9.32527V8.662H9.38009V11.5H9.84809V10.108C9.84809 9.748 9.92809 9.472 10.0881 9.28C10.2521 9.088 10.4561 8.992 10.7001 8.992C10.9001 8.992 11.0581 9.046 11.1741 9.154C11.2901 9.262 11.3481 9.45 11.3481 9.718V11.5H11.8101V9.664C11.8101 9.3 11.7221 9.03 11.5461 8.854C11.3741 8.678 11.1481 8.59 10.8681 8.59C10.6241 8.59 10.4181 8.65 10.2501 8.77C10.0821 8.89 9.95609 9.05 9.87209 9.25ZM7.37558 11.554C7.10758 11.554 6.86758 11.49 6.65558 11.362C6.44758 11.234 6.28358 11.058 6.16358 10.834C6.04358 10.61 5.98358 10.358 5.98358 10.078C5.98358 9.79 6.04358 9.536 6.16358 9.316C6.28358 9.092 6.44758 8.916 6.65558 8.788C6.86758 8.656 7.10758 8.59 7.37558 8.59C7.65158 8.59 7.89358 8.656 8.10158 8.788C8.31358 8.916 8.47958 9.092 8.59958 9.316C8.71958 9.536 8.77958 9.79 8.77958 10.078C8.77958 10.358 8.71958 10.61 8.59958 10.834C8.47958 11.058 8.31358 11.234 8.10158 11.362C7.89358 11.49 7.65158 11.554 7.37558 11.554ZM7.37558 11.17C7.57558 11.17 7.74558 11.122 7.88558 11.026C8.02558 10.93 8.13358 10.8 8.20958 10.636C8.28558 10.472 8.32358 10.286 8.32358 10.078C8.32358 9.866 8.28558 9.678 8.20958 9.514C8.13758 9.35 8.03158 9.22 7.89158 9.124C7.75158 9.028 7.57958 8.98 7.37558 8.98C7.17958 8.98 7.01158 9.028 6.87158 9.124C6.73158 9.22 6.62358 9.35 6.54758 9.514C6.47558 9.678 6.43958 9.866 6.43958 10.078C6.43958 10.286 6.47758 10.472 6.55358 10.636C6.62958 10.8 6.73758 10.93 6.87758 11.026C7.01758 11.122 7.18358 11.17 7.37558 11.17ZM5.54497 8.842V9.316C5.44497 9.216 5.32497 9.138 5.18497 9.082C5.04897 9.026 4.90097 8.998 4.74097 8.998C4.55697 8.998 4.38697 9.04 4.23097 9.124C4.07497 9.208 3.95097 9.33 3.85897 9.49C3.76697 9.65 3.72097 9.848 3.72097 10.084C3.72097 10.32 3.76697 10.518 3.85897 10.678C3.95097 10.834 4.07497 10.954 4.23097 11.038C4.38697 11.118 4.55697 11.158 4.74097 11.158C4.92097 11.158 5.07697 11.132 5.20897 11.08C5.34097 11.028 5.45297 10.962 5.54497 10.882V11.302C5.48897 11.354 5.39297 11.41 5.25697 11.47C5.12097 11.53 4.94097 11.56 4.71697 11.56C4.45697 11.56 4.21497 11.502 3.99097 11.386C3.76697 11.27 3.58897 11.102 3.45697 10.882C3.32497 10.662 3.25897 10.396 3.25897 10.084C3.25897 9.768 3.32497 9.5 3.45697 9.28C3.58897 9.06 3.76697 8.892 3.99097 8.776C4.21497 8.66 4.45697 8.602 4.71697 8.602C4.92897 8.602 5.10097 8.628 5.23297 8.68C5.36897 8.732 5.47297 8.786 5.54497 8.842ZM2.6645 8.662V11.5H2.2025V8.662H2.6645ZM2.2145 8.098C2.2705 8.15 2.3425 8.176 2.4305 8.176C2.5185 8.176 2.5905 8.15 2.6465 8.098C2.7065 8.042 2.7365 7.972 2.7365 7.888C2.7365 7.808 2.7065 7.742 2.6465 7.69C2.5905 7.638 2.5185 7.612 2.4305 7.612C2.3425 7.612 2.2705 7.638 2.2145 7.69C2.1585 7.742 2.1305 7.808 2.1305 7.888C2.1305 7.972 2.1585 8.042 2.2145 8.098Z" fill="#2E2F32"/>
</svg>
