<svg width="14" height="14" viewBox="0 0 14 14" fill="none" xmlns="http://www.w3.org/2000/svg">
<path fill-rule="evenodd" clip-rule="evenodd" d="M5 0C4.86739 0 4.74021 0.0526784 4.64645 0.146447L3.14645 1.64645C3.05268 1.74021 3 1.86739 3 2V3H1.5C0.671573 3 0 3.67157 0 4.5V10.5C0 11.3284 0.671573 12 1.5 12H2V11H1.5C1.22386 11 1 10.7761 1 10.5V4.5C1 4.22386 1.22386 4 1.5 4H12.5C12.7761 4 13 4.22386 13 4.5V10.5C13 10.7761 12.7761 11 12.5 11H12V12H12.5C13.3284 12 14 11.3284 14 10.5V4.5C14 3.67157 13.3284 3 12.5 3H11V0.5C11 0.223858 10.7761 0 10.5 0H5ZM10 3H4V2.20711L5.20711 1H10V3ZM5.5 10H8.5V9H5.5V10ZM8.5 12H5.5V11H8.5V12ZM3.5 7H10.5C10.7761 7 11 7.22386 11 7.5V13.5C11 13.7761 10.7761 14 10.5 14H3.5C3.22386 14 3 13.7761 3 13.5V7.5C3 7.22386 3.22386 7 3.5 7ZM4 13H10V8H4V13ZM3 5.5C3 5.77614 2.77614 6 2.5 6C2.22386 6 2 5.77614 2 5.5C2 5.22386 2.22386 5 2.5 5C2.77614 5 3 5.22386 3 5.5Z" fill="#2E2F32"/>
</svg>
