<svg width="13" height="13" viewBox="0 0 13 13" fill="none" xmlns="http://www.w3.org/2000/svg">
<path fill-rule="evenodd" clip-rule="evenodd" d="M0.146446 0.146454C0.052678 0.240222 0 0.367392 0 0.5V5.5C0 5.63261 0.052678 5.75978 0.146446 5.85355C0.240214 5.94731 0.367392 6 0.5 6H5.5C5.63261 6 5.75979 5.94731 5.85355 5.85355C5.94732 5.75978 6 5.63261 6 5.5V0.5C6 0.367392 5.94732 0.240222 5.85355 0.146454C5.75979 0.0526857 5.63261 0 5.5 0H0.5C0.367392 0 0.240214 0.0526857 0.146446 0.146454ZM1 5V1H5V5H1ZM0.146446 7.14645C0.052678 7.24022 0 7.36739 0 7.5V12.5C0 12.6326 0.052678 12.7598 0.146446 12.8535C0.240214 12.9473 0.367392 13 0.5 13H5.5C5.63261 13 5.75979 12.9473 5.85355 12.8535C5.94732 12.7598 6 12.6326 6 12.5V7.5C6 7.36739 5.94732 7.24022 5.85355 7.14645C5.75979 7.05269 5.63261 7 5.5 7H0.5C0.367392 7 0.240214 7.05269 0.146446 7.14645ZM1 12V8H5V12H1ZM7.14645 0.146454C7.24021 0.0526857 7.36739 0 7.5 0H12.5C12.6326 0 12.7598 0.0526857 12.8536 0.146454C12.9473 0.240222 13 0.367392 13 0.5V5.5C13 5.63261 12.9473 5.75978 12.8536 5.85355C12.7598 5.94731 12.6326 6 12.5 6H7.5C7.36739 6 7.24021 5.94731 7.14645 5.85355C7.05268 5.75978 7 5.63261 7 5.5V0.5C7 0.367392 7.05268 0.240222 7.14645 0.146454ZM8 1V5H12V1H8ZM2 4V2H4V4H2ZM2 9V11H4V9H2ZM9 4V2H11V4H9ZM8 9H9V10H8V9ZM8 9H7V7H8V9ZM9 11V10H10V9H11V8H12V7H13V9H12V10H11V12H10V11H9ZM9 12H7V10H8V11H9V12ZM9 12H10V13H9V12ZM12 12V13H11V12H12ZM12 12H13V10H12V12ZM11 8H10V9H9V7H11V8Z" fill="#2E2F32"/>
</svg>
