<svg width="14" height="14" viewBox="0 0 14 14" fill="none" xmlns="http://www.w3.org/2000/svg">
<path fill-rule="evenodd" clip-rule="evenodd" d="M7 14C10.866 14 14 10.866 14 7C14 3.13401 10.866 0 7 0C3.13401 0 0 3.13401 0 7C0 10.866 3.13401 14 7 14ZM7 1C10.3137 1 13 3.68629 13 7C13 10.3137 10.3137 13 7 13C3.68629 13 1 10.3137 1 7C1 3.68629 3.68629 1 7 1ZM7.47252 8.89908V8.68908L7.48127 8.71533C7.45705 8.46763 7.50571 8.21825 7.62127 7.99783C7.78553 7.77873 7.99426 7.59683 8.23377 7.46408L8.47002 7.28033C8.84262 7.06348 9.15384 6.75527 9.37429 6.38478C9.59474 6.0143 9.71717 5.59375 9.73002 5.16283C9.74029 4.86523 9.68075 4.56936 9.55616 4.29891C9.43156 4.02845 9.24538 3.79092 9.01252 3.60533C8.45714 3.19306 7.77887 2.98032 7.08752 3.00158C6.36034 2.9781 5.64903 3.21727 5.08377 3.67533C4.83217 3.89295 4.62955 4.16144 4.48929 4.46309C4.34902 4.76474 4.27429 5.09269 4.27002 5.42533V5.53033L5.57377 5.75783V5.62658C5.57377 5.23564 5.72415 4.85967 5.99377 4.57658C6.29112 4.31885 6.67714 4.18704 7.07002 4.20908C7.4118 4.19254 7.74967 4.28776 8.03252 4.48033C8.14066 4.57394 8.22544 4.69151 8.28013 4.82367C8.33482 4.95583 8.35789 5.09893 8.34752 5.24158C8.36032 5.45443 8.30516 5.66585 8.19002 5.84533C8.04158 6.05009 7.85053 6.22025 7.63002 6.34408L7.35877 6.52783C7.00436 6.74916 6.70511 7.04842 6.48377 7.40283C6.27924 7.75557 6.1791 8.15914 6.19502 8.56658V8.89908H7.47252ZM7.72756 10.8027C7.8237 10.6588 7.87502 10.4896 7.87502 10.3166C7.87502 10.0845 7.78283 9.86195 7.61874 9.69786C7.45464 9.53377 7.23208 9.44158 7.00002 9.44158C6.82696 9.44158 6.65779 9.4929 6.5139 9.58904C6.37 9.68519 6.25785 9.82185 6.19163 9.98173C6.1254 10.1416 6.10807 10.3175 6.14183 10.4873C6.17559 10.657 6.25893 10.8129 6.3813 10.9353C6.50367 11.0577 6.65958 11.141 6.82932 11.1748C6.99905 11.2085 7.17498 11.1912 7.33487 11.125C7.49475 11.0587 7.63141 10.9466 7.72756 10.8027Z" fill="#2E2F32"/>
</svg>
