<svg width="14" height="14" viewBox="0 0 14 14" fill="none" xmlns="http://www.w3.org/2000/svg">
<path fill-rule="evenodd" clip-rule="evenodd" d="M2.5 0C1.11929 0 0 1.11929 0 2.5V12.5C0 12.6326 0.0526784 12.7598 0.146447 12.8536L1.14645 13.8536C1.3266 14.0337 1.6134 14.0496 1.81235 13.8904L2.77685 13.1188L3.97265 13.916C4.1406 14.028 4.3594 14.028 4.52735 13.916L5.75 13.1009L6.97265 13.916C7.1406 14.028 7.3594 14.028 7.52735 13.916L8.72316 13.1188L9.68776 13.8904C9.88671 14.0496 10.1735 14.0337 10.3537 13.8536L11.3537 12.8536C11.4474 12.7598 11.5001 12.6326 11.5001 12.5L11.5 6H14.0001V1.75C14.0001 0.783502 13.2166 0 12.2501 0C12.1652 0 12.0818 0.00604487 12.0001 0.0177264V0H2.5ZM2.5 1H10.5854C10.5301 1.15642 10.5 1.32475 10.5 1.5001L10.5001 12.2929L9.96298 12.83L9.06233 12.1096C8.89231 11.9735 8.65381 11.9632 8.47265 12.084L7.25 12.8991L6.02735 12.084C5.8594 11.972 5.6406 11.972 5.47265 12.084L4.25 12.8991L3.02735 12.084C2.84618 11.9632 2.60768 11.9735 2.43765 12.1096L1.53711 12.83L1 12.2929V2.5C1 1.67157 1.67157 1 2.5 1ZM11.5001 5V1.75C11.5001 1.33579 11.8359 1 12.2501 1C12.6643 1 13.0001 1.33579 13.0001 1.75V5H11.5001ZM2.50012 4H7.00012V3H2.50012V4ZM7.00012 6.5H2.50012V5.5H7.00012V6.5ZM9.00012 9H2.50012V8H9.00012V9Z" fill="#2E2F32"/>
</svg>
