<svg width="14" height="14" viewBox="0 0 14 14" fill="none" xmlns="http://www.w3.org/2000/svg">
<path fill-rule="evenodd" clip-rule="evenodd" d="M6.11014 12.6123L1 10.3508L1 4.28609L6.37147 6.76404C6.41368 6.78351 6.45657 6.80092 6.5 6.81628V9.0024H7.5V6.81632C7.54347 6.80095 7.5864 6.78353 7.62864 6.76404L13 4.28614L13 7.00336H14V3.65572C14 3.26026 13.7667 2.90198 13.405 2.74183L7.40497 0.0856286C7.14707 -0.0285427 6.85293 -0.0285429 6.59503 0.0856283L0.595031 2.74183C0.233274 2.90198 0 3.26026 0 3.65572V10.3508C0 10.7464 0.233333 11.1047 0.595159 11.2648L5.84818 13.5894L6.11014 12.6123ZM3.61129 4.38988L1.52043 3.42533L7 0.999521L8.80041 1.79656L3.61129 4.38988ZM4.77405 4.92628L9.98614 2.32148L12.4796 3.42535L7.20959 5.85651C7.07664 5.91785 6.92347 5.91785 6.79053 5.85651L4.77405 4.92628ZM8.00099 10.1429V8.35102C8.00099 8.04148 8.37799 7.88646 8.59847 8.10534L9.16372 8.66646C10.3405 7.76004 12.0406 7.84324 13.1213 8.91607C14.2929 10.0791 14.2929 11.9647 13.1213 13.1277C11.9497 14.2908 10.0503 14.2908 8.87868 13.1277C8.59414 12.8453 8.37806 12.5192 8.23143 12.1706L9.1542 11.7881C9.25148 12.0193 9.39501 12.2364 9.58579 12.4258C10.3668 13.2011 11.6332 13.2011 12.4142 12.4258C13.1953 11.6504 13.1953 10.3934 12.4142 9.61801C11.7249 8.93371 10.6575 8.85335 9.87943 9.37695L10.4035 9.89719C10.624 10.1161 10.4678 10.4903 10.156 10.4903H8.35099C8.15769 10.4903 8.00099 10.3348 8.00099 10.1429Z" fill="#2E2F32"/>
</svg>
