<svg width="14" height="14" viewBox="0 0 14 14" fill="none" xmlns="http://www.w3.org/2000/svg">
<path fill-rule="evenodd" clip-rule="evenodd" d="M3.25 6.5C5.04493 6.5 6.5 5.04493 6.5 3.25C6.5 1.45507 5.04493 0 3.25 0C1.45507 0 0 1.45507 0 3.25C0 5.04493 1.45507 6.5 3.25 6.5ZM3.25 1C4.49264 1 5.5 2.00736 5.5 3.25C5.5 4.49264 4.49264 5.5 3.25 5.5C2.00736 5.5 1 4.49264 1 3.25C1 2.00736 2.00736 1 3.25 1ZM10.75 6.5C12.5449 6.5 14 5.04493 14 3.25C14 1.45507 12.5449 0 10.75 0C8.95507 0 7.5 1.45507 7.5 3.25C7.5 5.04493 8.95507 6.5 10.75 6.5ZM10.75 1C11.9926 1 13 2.00736 13 3.25C13 4.49264 11.9926 5.5 10.75 5.5C9.50736 5.5 8.5 4.49264 8.5 3.25C8.5 2.00736 9.50736 1 10.75 1ZM3.25 14C5.04493 14 6.5 12.5449 6.5 10.75C6.5 8.95507 5.04493 7.5 3.25 7.5C1.45507 7.5 0 8.95507 0 10.75C0 12.5449 1.45507 14 3.25 14ZM3.25 13C2.00736 13 1 11.9926 1 10.75C1 9.50736 2.00736 8.5 3.25 8.5C4.49264 8.5 5.5 9.50736 5.5 10.75C5.5 11.9926 4.49264 13 3.25 13ZM10.75 14C12.5449 14 14 12.5449 14 10.75C14 8.95507 12.5449 7.5 10.75 7.5C8.95507 7.5 7.5 8.95507 7.5 10.75C7.5 12.5449 8.95507 14 10.75 14ZM10.75 8.5C11.9926 8.5 13 9.50736 13 10.75C13 11.9926 11.9926 13 10.75 13C9.50736 13 8.5 11.9926 8.5 10.75C8.5 9.50736 9.50736 8.5 10.75 8.5Z" fill="#2E2F32"/>
</svg>
