<svg width="14" height="14" viewBox="0 0 14 14" fill="none" xmlns="http://www.w3.org/2000/svg">
<path fill-rule="evenodd" clip-rule="evenodd" d="M6.5 3.25C6.5 5.04493 5.04493 6.5 3.25 6.5C1.45507 6.5 0 5.04493 0 3.25C0 1.45507 1.45507 0 3.25 0C5.04493 0 6.5 1.45507 6.5 3.25ZM14 3.25C14 5.04493 12.5449 6.5 10.75 6.5C8.95507 6.5 7.5 5.04493 7.5 3.25C7.5 1.45507 8.95507 0 10.75 0C12.5449 0 14 1.45507 14 3.25ZM6.5 10.75C6.5 12.5449 5.04493 14 3.25 14C1.45507 14 0 12.5449 0 10.75C0 8.95507 1.45507 7.5 3.25 7.5C5.04493 7.5 6.5 8.95507 6.5 10.75ZM14 10.75C14 12.5449 12.5449 14 10.75 14C8.95507 14 7.5 12.5449 7.5 10.75C7.5 8.95507 8.95507 7.5 10.75 7.5C12.5449 7.5 14 8.95507 14 10.75Z" fill="#2E2F32"/>
</svg>
