<svg width="14" height="14" viewBox="0 0 14 14" fill="none" xmlns="http://www.w3.org/2000/svg">
<path fill-rule="evenodd" clip-rule="evenodd" d="M11.5 5C12.8807 5 14 3.88071 14 2.5C14 1.11929 12.8807 0 11.5 0C10.1193 0 9 1.11929 9 2.5C9 2.72429 9.02954 2.94169 9.08493 3.1485L4.46737 5.45728C4.00968 4.87442 3.29857 4.5 2.5 4.5C1.11929 4.5 0 5.61929 0 7C0 8.38071 1.11929 9.5 2.5 9.5C3.29857 9.5 4.00968 9.12558 4.46737 8.54272L9.08493 10.8515C9.02954 11.0583 9 11.2757 9 11.5C9 12.8807 10.1193 14 11.5 14C12.8807 14 14 12.8807 14 11.5C14 10.1193 12.8807 9 11.5 9C10.7014 9 9.9903 9.37443 9.53261 9.9573L4.91506 7.64853C4.97046 7.4417 5 7.2243 5 7C5 6.7757 4.97046 6.5583 4.91506 6.35147L9.53261 4.0427C9.9903 4.62557 10.7014 5 11.5 5Z" fill="#2E2F32"/>
</svg>
