<svg width="12" height="14" viewBox="0 0 12 14" fill="none" xmlns="http://www.w3.org/2000/svg">
<path fill-rule="evenodd" clip-rule="evenodd" d="M3.14648 2.64645L5.64648 0.146447C5.84175 -0.0488155 6.15833 -0.0488155 6.35359 0.146447L8.85359 2.64645L8.14648 3.35355L6.5 1.70707V8.99998H5.5V1.70714L3.85359 3.35355L3.14648 2.64645ZM0 4.99998C0 4.44769 0.447715 3.99998 1 3.99998H3V4.99998H1V13H11V4.99998H9V3.99998H11C11.5523 3.99998 12 4.44769 12 4.99998V13C12 13.5523 11.5523 14 11 14H1C0.447715 14 0 13.5523 0 13V4.99998Z" fill="#2E2F32"/>
</svg>
