<svg width="13" height="13" viewBox="0 0 13 13" fill="none" xmlns="http://www.w3.org/2000/svg">
<path fill-rule="evenodd" clip-rule="evenodd" d="M2 0H4.5V1L2 1C1.44772 1 1 1.44772 1 2L1 11C1 11.5523 1.44772 12 2 12H4.5V13H2C0.89543 13 0 12.1046 0 11V2C0 0.895431 0.895431 0 2 0ZM10.7929 7.00001L9.14645 8.64648L9.85355 9.35359L12.3536 6.85359C12.5488 6.65833 12.5488 6.34175 12.3536 6.14648L9.85355 3.64648L9.14645 4.35359L10.7929 6.00001L4.49996 6.00001V7.00001L10.7929 7.00001Z" fill="#2E2F32"/>
</svg>
