<svg width="14" height="14" viewBox="0 0 14 14" fill="none" xmlns="http://www.w3.org/2000/svg">
<path fill-rule="evenodd" clip-rule="evenodd" d="M4.5 0C3.11929 0 2 1.11929 2 2.5V3H0V4H2V4.5C2 5.88071 3.11929 7 4.5 7C5.88071 7 7 5.88071 7 4.5V4H14V3H7V2.5C7 1.11929 5.88071 0 4.5 0ZM6 4.5V2.5C6 1.67157 5.32843 1 4.5 1C3.67157 1 3 1.67157 3 2.5V4.5C3 5.32843 3.67157 6 4.5 6C5.32843 6 6 5.32843 6 4.5ZM7 11H0V10H7V9.5C7 8.11929 8.11929 7 9.5 7C10.8807 7 12 8.11929 12 9.5V10H14V11H12V11.5C12 12.8807 10.8807 14 9.5 14C8.11929 14 7 12.8807 7 11.5V11ZM11 9.5V11.5C11 12.3284 10.3284 13 9.5 13C8.67157 13 8 12.3284 8 11.5V9.5C8 8.67157 8.67157 8 9.5 8C10.3284 8 11 8.67157 11 9.5Z" fill="#2E2F32"/>
</svg>
