<svg width="14" height="14" viewBox="0 0 14 14" fill="none" xmlns="http://www.w3.org/2000/svg">
<path fill-rule="evenodd" clip-rule="evenodd" d="M3.04943 13.9412L6.99996 11.9197L10.9505 13.9412C11.0616 13.998 11.1876 14.0142 11.3085 13.9871C11.6068 13.9202 11.7969 13.6128 11.733 13.3004L10.8519 8.98892L13.8362 5.89536C13.9204 5.80802 13.9756 5.6946 13.9936 5.57187C14.0397 5.25612 13.8328 4.96094 13.5312 4.91258L9.38058 4.24681L7.49333 0.31856C7.44005 0.207648 7.3541 0.117637 7.24819 0.0618348C6.97571 -0.0817334 6.64368 0.0332063 6.50659 0.31856L4.61934 4.24681L0.46868 4.91258C0.351489 4.93138 0.243184 4.98917 0.15978 5.07741C-0.0548044 5.30443 -0.0530226 5.67064 0.163759 5.89536L3.14804 8.98892L2.2669 13.3004C2.24103 13.427 2.25646 13.5591 2.31074 13.6754C2.44465 13.9624 2.77537 14.0814 3.04943 13.9412Z" fill="#2E2F32"/>
</svg>
