<svg width="14" height="14" viewBox="0 0 14 14" fill="none" xmlns="http://www.w3.org/2000/svg">
<path fill-rule="evenodd" clip-rule="evenodd" d="M6.93934 0.146447C7.03311 0.0526783 7.16028 0 7.29289 0H13.2929C13.569 0 13.7929 0.223858 13.7929 0.5V6.5C13.7929 6.63261 13.7402 6.75979 13.6464 6.85355L7 13.5C6.60947 13.8905 5.97631 13.8905 5.58579 13.5L0.292893 8.20711C-0.097631 7.81658 -0.0976311 7.18342 0.292893 6.79289L6.93934 0.146447ZM7.5 1L1 7.5L6.29289 12.7929L12.7929 6.29289V1H7.5ZM8.79297 7C9.89754 7 10.793 6.10457 10.793 5C10.793 3.89543 9.89754 3 8.79297 3C7.6884 3 6.79297 3.89543 6.79297 5C6.79297 6.10457 7.6884 7 8.79297 7ZM8.79297 4C9.34525 4 9.79297 4.44772 9.79297 5C9.79297 5.55228 9.34525 6 8.79297 6C8.24068 6 7.79297 5.55228 7.79297 5C7.79297 4.44772 8.24068 4 8.79297 4Z" fill="#2E2F32"/>
</svg>
