<svg width="15" height="14" viewBox="0 0 15 14" fill="none" xmlns="http://www.w3.org/2000/svg">
<path fill-rule="evenodd" clip-rule="evenodd" d="M10.7842 4.47205C10.7094 4.68176 10.8808 5 11.1035 5H12.2752C13.9144 5 14.6779 7.03186 13.4442 8.11133C13.1751 8.3468 13.0736 8.7207 13.1867 9.06006L13.238 9.21411C13.4058 9.71729 13.3667 10.2665 13.1295 10.741L13.1056 10.7888C13.0807 10.8385 13.0602 10.89 13.044 10.9427C13.0149 11.0375 13 11.1364 13 11.2361V11.6973C13 11.8947 12.9416 12.0876 12.8321 12.252L12.5937 12.6094C12.2228 13.1658 11.5983 13.5 10.9296 13.5H8C5.79086 13.5 4 11.7091 4 9.5V7.41992C4 6.83606 4.25513 6.28137 4.69843 5.90137L6.80157 4.09863C7.24487 3.71863 7.5 3.16394 7.5 2.58008V1C7.5 0.447754 7.94772 0 8.5 0C9.88071 0 11 1.11914 11 2.49988V3C11 3.6814 10.8968 4.15649 10.7842 4.47205ZM0 7.69995C0 6.76111 0.761108 6 1.70001 6H2.9996V7H1.70001C1.31342 7 1 7.31335 1 7.69995V11.3C1 11.6866 1.31342 12 1.70001 12H2.9996V13H1.70001C0.761108 13 0 12.2389 0 11.3V7.69995Z" fill="#2E2F32"/>
</svg>
