<svg width="15" height="14" viewBox="0 0 15 14" fill="none" xmlns="http://www.w3.org/2000/svg">
<path fill-rule="evenodd" clip-rule="evenodd" d="M10.7842 9.02795C10.7094 8.81824 10.8808 8.5 11.1035 8.5H12.2752C13.9144 8.5 14.6779 6.46814 13.4442 5.38867C13.1751 5.1532 13.0736 4.7793 13.1867 4.43994L13.238 4.28589C13.4058 3.78271 13.3667 3.23352 13.1295 2.75903L13.1056 2.71118C13.0807 2.6615 13.0602 2.60999 13.044 2.55725C13.0149 2.46252 13 2.36365 13 2.26392V1.80273C13 1.60535 12.9416 1.41235 12.8321 1.24805L12.5937 0.890625C12.2228 0.334229 11.5983 0 10.9296 0H8C5.79086 0 4 1.79089 4 4V6.08008C4 6.66394 4.25513 7.21863 4.69843 7.59863L6.80157 9.40137C7.24487 9.78137 7.5 10.3361 7.5 10.9199V12.5C7.5 13.0522 7.94772 13.5 8.5 13.5C9.88071 13.5 11 12.3809 11 11.0001V10.5C11 9.8186 10.8968 9.34351 10.7842 9.02795ZM12.2112 3.15833L12.2351 3.2063C12.3537 3.44348 12.3732 3.71814 12.2893 3.96973L12.238 4.12378C11.9975 4.84521 12.2134 5.6405 12.7857 6.14124C13.3245 6.61267 12.9911 7.5 12.2752 7.5H11.1035C10.4966 7.5 10.1247 7.91223 9.96725 8.18359C9.80511 8.46313 9.67856 8.90503 9.84238 9.36414C9.91251 9.56067 10 9.92065 10 10.5V11.0001C10 11.8285 9.32849 12.5 8.5 12.5V10.9199C8.5 10.0441 8.11731 9.21204 7.45236 8.64209L5.34921 6.83936C5.12756 6.64941 5 6.37207 5 6.08008V4C5 2.34314 6.34314 1 8 1H10.9296C11.264 1 11.5762 1.16711 11.7617 1.44531L12 1.80273V2.26392C12 2.57446 12.0723 2.88062 12.2112 3.15833ZM0 5.80005C0 6.73889 0.761108 7.5 1.70001 7.5H2.9996V6.5H1.70001C1.31342 6.5 1 6.18665 1 5.80005V2.19995C1 1.81335 1.31342 1.5 1.70001 1.5H2.9996V0.5H1.70001C0.761108 0.5 0 1.26111 0 2.19995V5.80005Z" fill="#2E2F32"/>
</svg>
