<svg width="14" height="10" viewBox="0 0 14 10" fill="none" xmlns="http://www.w3.org/2000/svg">
<path fill-rule="evenodd" clip-rule="evenodd" d="M1 0C0.447716 0 0 0.447715 0 1V7.49998C0 8.05226 0.447715 8.49998 1 8.49998H2.063C2.28502 9.3626 3.06807 10 4 10C4.93192 10 5.71497 9.36261 5.93699 8.5H8.06301C8.28503 9.36261 9.06808 10 10 10C10.9319 10 11.715 9.3626 11.937 8.49998H13C13.5523 8.49998 14 8.05226 14 7.49998V4.99999C14 4.44771 13.5523 4 13 3.99999L12.1484 3.99998L10.5481 1.89481C10.359 1.64605 10.0645 1.49998 9.75199 1.49998L8.99998 1.49998V1C8.99998 0.447714 8.55226 0 7.99998 0H1ZM8.06301 7.5H5.93699C5.71497 6.63739 4.93192 6 4 6C3.06809 6 2.28504 6.63737 2.06301 7.49998L1 7.49998V1H7.99998V1.49998L8 1.50702V5H9V2.49998H9.75199L11.3522 4.60514C11.5413 4.8539 11.8359 4.99997 12.1483 4.99998L13 4.99999V7.49998H11.937C11.715 6.63737 10.9319 6 10 6C9.06808 6 8.28503 6.63739 8.06301 7.5ZM10 7C10.5523 7 11 7.44772 11 8C11 8.55228 10.5523 9 10 9C9.44772 9 9 8.55228 9 8C9 7.44772 9.44772 7 10 7ZM5 8C5 8.55228 4.55228 9 4 9C3.44772 9 3 8.55228 3 8C3 7.44772 3.44772 7 4 7C4.55228 7 5 7.44772 5 8Z" fill="#2E2F32"/>
</svg>
