<svg width="11" height="13" viewBox="0 0 11 13" fill="none" xmlns="http://www.w3.org/2000/svg">
<path fill-rule="evenodd" clip-rule="evenodd" d="M3.42133 2.11108C3.14662 2.5222 3 3.00555 3 3.5C3 4.16304 3.26339 4.79893 3.73223 5.26777C4.20107 5.73661 4.83696 6 5.5 6C5.99445 6 6.4778 5.85338 6.88893 5.57867C7.30005 5.30397 7.62048 4.91353 7.8097 4.45671C7.99892 3.9999 8.04842 3.49723 7.95196 3.01228C7.8555 2.52732 7.6174 2.08186 7.26777 1.73223C6.91814 1.3826 6.47268 1.1445 5.98772 1.04803C5.50277 0.951572 5.00011 1.00108 4.54329 1.1903C4.08648 1.37952 3.69603 1.69995 3.42133 2.11108ZM3.5555 0.589859C4.13108 0.205274 4.80777 0 5.5 0C6.42826 0 7.3185 0.368746 7.97487 1.02512C8.63125 1.6815 9 2.57174 9 3.5C9 4.19223 8.79473 4.86892 8.41014 5.4445C8.02556 6.02007 7.47894 6.46867 6.83939 6.73358C6.19985 6.99849 5.49612 7.0678 4.81718 6.93275C4.13825 6.7977 3.51461 6.46436 3.02513 5.97488C2.53564 5.48539 2.2023 4.86175 2.06725 4.18282C1.9322 3.50388 2.00152 2.80015 2.26642 2.16061C2.53133 1.52106 2.97993 0.974444 3.5555 0.589859ZM2.31802 9.81802C1.47411 10.6619 1 11.8065 1 13H0C0 11.5413 0.579462 10.1424 1.61091 9.11092C2.64236 8.07947 4.04131 7.5 5.5 7.5C6.95869 7.5 8.35764 8.07947 9.38909 9.11092C10.4205 10.1424 11 11.5413 11 13H10C10 11.8065 9.52589 10.6619 8.68198 9.81802C7.83807 8.9741 6.69347 8.5 5.5 8.5C4.30653 8.5 3.16193 8.9741 2.31802 9.81802Z" fill="#2E2F32"/>
</svg>
