<svg width="12" height="14" viewBox="0 0 12 14" fill="none" xmlns="http://www.w3.org/2000/svg">
<path fill-rule="evenodd" clip-rule="evenodd" d="M9.5 3.5C9.5 4.77316 8.82021 5.88755 7.80379 6.5H8.5C10.433 6.5 12 8.067 12 10H11C11 8.61929 9.88071 7.5 8.5 7.5H4C2.34315 7.5 1 8.84315 1 10.5V13H7V14H1C0.447715 14 0 13.5523 0 13V10.5C0 8.29086 1.79086 6.5 4 6.5H4.19621C3.17979 5.88755 2.5 4.77316 2.5 3.5C2.5 1.567 4.067 0 6 0C7.933 0 9.5 1.567 9.5 3.5ZM6 6C7.38071 6 8.5 4.88071 8.5 3.5C8.5 2.11929 7.38071 1 6 1C4.61929 1 3.5 2.11929 3.5 3.5C3.5 4.88071 4.61929 6 6 6ZM9 10V11.5H7.5V12.5H9V14H10V12.5H11.5V11.5H10V10H9Z" fill="#2E2F32"/>
</svg>
