<svg width="14" height="14" viewBox="0 0 14 14" fill="none" xmlns="http://www.w3.org/2000/svg">
<path fill-rule="evenodd" clip-rule="evenodd" d="M10.8125 0.0180534C11.4288 -0.0996128 12 0.372836 12 1.00031V2.4958H11V1.00031L1.4831 2.81718C1.20277 2.87069 1 3.11584 1 3.40123C1 3.72962 1.26621 3.99583 1.5946 3.99583H13C13.5523 3.99583 14 4.44354 14 4.99583V12.9958C14 13.5481 13.5523 13.9958 13 13.9958H1C0.447715 13.9958 0 13.5481 0 12.9958V6.49583H1V12.9958H13V11.4958H9C8.44772 11.4958 8 11.0481 8 10.4958V7.49585C8 6.94356 8.44772 6.49585 9 6.49585H13V4.99583H1.5946C0.713927 4.99583 0 4.2819 0 3.40123C0 2.63586 0.543785 1.97844 1.29558 1.83492L10.8125 0.0180534ZM13 7.49585V10.4958H9L9 7.49585H13Z" fill="#2E2F32"/>
</svg>
