<svg width="14" height="13" viewBox="0 0 14 13" fill="none" xmlns="http://www.w3.org/2000/svg">
<path fill-rule="evenodd" clip-rule="evenodd" d="M6.14455 0.511689C6.51762 -0.170563 7.48238 -0.170563 7.85545 0.511689L13.8752 11.5205C14.2381 12.1841 13.7663 13 13.0197 13H0.980263C0.233696 13 -0.238057 12.1841 0.124817 11.5205L6.14455 0.511689ZM7 0.995615L0.980263 12.0044H13.0197L7 0.995615ZM6.31919 4.6336L6.53104 8.46179H7.47554L7.67857 4.6336H6.31919ZM6.46925 10.299C6.61048 10.4196 6.78703 10.48 6.99888 10.48C7.20484 10.48 7.37845 10.4196 7.51968 10.299C7.6668 10.1723 7.74036 9.9973 7.74036 9.77406C7.74036 9.56289 7.6668 9.39094 7.51968 9.2582C7.37845 9.12547 7.20484 9.0591 6.99888 9.0591C6.78703 9.0591 6.61048 9.12547 6.46925 9.2582C6.32802 9.39094 6.2574 9.56289 6.2574 9.77406C6.2574 9.9973 6.32802 10.1723 6.46925 10.299Z" fill="#2E2F32"/>
</svg>
