<svg width="14" height="13" viewBox="0 0 14 13" fill="none" xmlns="http://www.w3.org/2000/svg">
<path fill-rule="evenodd" clip-rule="evenodd" d="M7.85545 0.511689C7.48238 -0.170563 6.51762 -0.170563 6.14455 0.511689L0.124817 11.5205C-0.238057 12.1841 0.233696 13 0.980263 13H13.0197C13.7663 13 14.2381 12.1841 13.8752 11.5205L7.85545 0.511689ZM7.47559 8.4618H6.53109L6.31924 4.63361H7.67861L7.47559 8.4618ZM7.51973 10.299C7.37849 10.4196 7.20489 10.48 6.99893 10.48C6.78707 10.48 6.61053 10.4196 6.4693 10.299C6.32806 10.1723 6.25745 9.9973 6.25745 9.77407C6.25745 9.5629 6.32806 9.39095 6.4693 9.25821C6.61053 9.12548 6.78707 9.05911 6.99893 9.05911C7.20489 9.05911 7.37849 9.12548 7.51973 9.25821C7.66684 9.39095 7.7404 9.5629 7.7404 9.77407C7.7404 9.9973 7.66684 10.1723 7.51973 10.299Z" fill="#2E2F32"/>
</svg>
