<svg width="14" height="10" viewBox="0 0 14 10" fill="none" xmlns="http://www.w3.org/2000/svg">
<path fill-rule="evenodd" clip-rule="evenodd" d="M0.707107 3.55786C4.11758 0.147381 9.64706 0.147381 13.0575 3.55786L13.7646 2.85075C9.96364 -0.95025 3.801 -0.95025 0 2.85075L0.707107 3.55786ZM11.0575 5.55786C8.75154 3.25194 5.0129 3.25194 2.70698 5.55786L1.99988 4.85075C4.69632 2.15431 9.06812 2.15431 11.7646 4.85075L11.0575 5.55786ZM4.76094 7.61181C5.93251 6.44024 7.83201 6.44024 9.00358 7.61181L9.71069 6.90471C8.14859 5.34261 5.61593 5.34261 4.05383 6.90471L4.76094 7.61181ZM7.6825 8.9904C7.6825 9.40461 7.34671 9.7404 6.9325 9.7404C6.51828 9.7404 6.1825 9.40461 6.1825 8.9904C6.1825 8.57619 6.51828 8.2404 6.9325 8.2404C7.34671 8.2404 7.6825 8.57619 7.6825 8.9904Z" fill="#2E2F32"/>
</svg>
