<svg width="14" height="14" viewBox="0 0 14 14" fill="none" xmlns="http://www.w3.org/2000/svg">
<path fill-rule="evenodd" clip-rule="evenodd" d="M6.39938 4.86937C6.06462 3.62383 6.37068 2.27541 7.24829 1.29274L7.39984 1.13243C8.47689 0.0557431 10.0686 -0.278469 11.4728 0.238918C11.8153 0.365105 11.9115 0.803819 11.6533 1.06178L10.1487 2.5634L10.3807 3.62037L11.4387 3.85236L12.9415 2.35304C13.1784 2.11656 13.5668 2.17842 13.7266 2.4545L13.7642 2.53505C14.2774 3.93706 13.942 5.52401 12.8672 6.59843C11.876 7.58934 10.4497 7.95044 9.13646 7.6004L9.04175 7.57225L2.7594 13.8537C2.58585 14.0272 2.31651 14.0465 2.12167 13.9115L2.05243 13.8537L0.146515 11.9484C-0.0488255 11.7531 -0.0488198 11.4365 0.146528 11.2412L6.42683 4.96233L6.39938 4.86937ZM10.2937 1.00544L10.1853 1.00044C9.42437 0.986836 8.67058 1.27605 8.10681 1.83964C7.29294 2.65323 7.05204 3.86185 7.46553 4.91449C7.53826 5.09963 7.49432 5.31028 7.35364 5.45091L1.20698 11.5941L2.40494 12.7931L8.55437 6.64672C8.67466 6.52648 8.84613 6.47696 9.00908 6.51067L9.08957 6.53453C10.1416 6.94492 11.3478 6.70335 12.1602 5.89123C12.7227 5.3289 13.012 4.57746 12.9997 3.8184L12.9936 3.71236L11.9516 4.75408C11.8551 4.8504 11.7247 4.90209 11.5912 4.90017L11.4909 4.88854L9.85452 4.5285C9.6642 4.48662 9.51554 4.33798 9.47366 4.14766L9.11365 2.51194C9.07697 2.34526 9.12784 2.17139 9.24857 2.05076L10.2937 1.00544Z" fill="#2E2F32"/>
</svg>
