<svg width="14" height="14" viewBox="0 0 14 14" fill="none" xmlns="http://www.w3.org/2000/svg">
<path fill-rule="evenodd" clip-rule="evenodd" d="M10.2249 11.0734C9.1446 11.9646 7.75982 12.5 6.25 12.5C2.79822 12.5 0 9.70178 0 6.25C0 2.79822 2.79822 0 6.25 0C9.70178 0 12.5 2.79822 12.5 6.25C12.5 7.75982 11.9646 9.1446 11.0734 10.2249L14.0028 13.1543L13.1543 14.0028L10.2249 11.0734ZM1.2 6.25C1.2 9.03904 3.46096 11.3 6.25 11.3C9.03904 11.3 11.3 9.03904 11.3 6.25C11.3 3.46096 9.03904 1.2 6.25 1.2C3.46096 1.2 1.2 3.46096 1.2 6.25ZM5.75 6.75V9.25H6.75V6.75H9.25V5.75H6.75V3.25H5.75V5.75H3.25V6.75H5.75Z" fill="#2E2F32"/>
</svg>
