<svg width="159" height="116" viewBox="0 0 159 116" fill="none" xmlns="http://www.w3.org/2000/svg">
<g clip-path="url(#clip0_1700_23153)">
<path d="M3.248 18V9.728H0.496V7.792H8.32V9.728H5.584V18H3.248ZM11.8841 10.416V18H9.62813V10.416H11.8841ZM10.7801 9.568C10.3855 9.568 10.0655 9.472 9.82013 9.28C9.58546 9.07733 9.46813 8.79467 9.46813 8.432C9.46813 8.08 9.58546 7.81333 9.82013 7.632C10.0655 7.44 10.3855 7.344 10.7801 7.344C11.1535 7.344 11.4575 7.44 11.6921 7.632C11.9375 7.81333 12.0601 8.08 12.0601 8.432C12.0601 8.79467 11.9375 9.07733 11.6921 9.28C11.4575 9.472 11.1535 9.568 10.7801 9.568ZM14.7835 8.688H16.1435V15.136C16.1435 15.5947 16.2342 15.9093 16.4155 16.08C16.6075 16.24 16.8582 16.32 17.1675 16.32C17.3168 16.32 17.4448 16.304 17.5515 16.272C17.6582 16.24 17.7488 16.2027 17.8235 16.16V17.936C17.7382 17.9787 17.5995 18.0267 17.4075 18.08C17.2155 18.1333 16.9488 18.16 16.6075 18.16C15.7862 18.16 15.1248 17.9413 14.6235 17.504C14.1328 17.0667 13.8875 16.3787 13.8875 15.44V11.52L15.0555 10.416H17.8235V12.192H12.9275V11.056C13.2582 10.992 13.5515 10.8693 13.8075 10.688C14.0635 10.5067 14.2768 10.256 14.4475 9.936C14.6182 9.60533 14.7302 9.18933 14.7835 8.688ZM18.9849 15.632V7.424H21.4489V15.392C21.4489 15.6693 21.5022 15.872 21.6089 16C21.7262 16.1173 21.8969 16.176 22.1209 16.176C22.2062 16.176 22.2809 16.1707 22.3449 16.16C22.4195 16.1493 22.4889 16.1387 22.5529 16.128V17.984C22.4889 18.016 22.3769 18.048 22.2169 18.08C22.0569 18.1227 21.8435 18.144 21.5769 18.144C20.7449 18.144 20.1049 17.9307 19.6569 17.504C19.2089 17.0773 18.9849 16.4533 18.9849 15.632ZM29.7386 13.376L28.4746 14.048C28.5173 13.5467 28.4906 13.136 28.3946 12.816C28.3093 12.4853 28.1653 12.24 27.9626 12.08C27.76 11.92 27.4986 11.84 27.1786 11.84C26.656 11.84 26.2453 12.032 25.9466 12.416C25.6586 12.7893 25.5146 13.3867 25.5146 14.208C25.5146 14.9547 25.712 15.5093 26.1066 15.872C26.512 16.224 27.1093 16.4 27.8986 16.4C28.4 16.4 28.8586 16.3413 29.2746 16.224C29.6906 16.096 30.016 15.9467 30.2506 15.776V17.616C30.08 17.7547 29.7653 17.8933 29.3066 18.032C28.8586 18.1707 28.32 18.24 27.6906 18.24C26.7946 18.24 26.016 18.08 25.3546 17.76C24.6933 17.4293 24.1813 16.9653 23.8186 16.368C23.456 15.76 23.2746 15.04 23.2746 14.208C23.2746 13.376 23.4453 12.656 23.7866 12.048C24.1386 11.44 24.608 10.976 25.1946 10.656C25.7813 10.3253 26.4266 10.16 27.1306 10.16C27.856 10.16 28.4906 10.32 29.0346 10.64C29.5893 10.96 30.0106 11.4613 30.2986 12.144C30.5866 12.8267 30.6986 13.7067 30.6346 14.784H24.1226V13.376H29.7386Z" fill="#2E2F32"/>
</g>
<defs>
<clipPath id="clip0_1700_23153"><rect width="159" height="24" fill="white"/></clipPath>
</defs>
</svg>
